<svg width="115" height="131" viewBox="0 0 115 131" fill="none" xmlns="http://www.w3.org/2000/svg">
<path d="M74.5823 103.432C71.6702 102.875 69.0858 101.215 67.3691 98.7978C67.7863 99.0047 68.2406 99.1264 68.7053 99.1556C69.1701 99.1848 69.636 99.121 70.0758 98.9679C70.8491 98.7204 71.5174 98.2216 71.9748 97.5508C71.9924 98.6559 72.2324 99.7461 72.6804 100.757C73.1283 101.767 73.7752 102.677 74.5823 103.432Z" fill="#A5F9CF"/>
<path d="M91.9277 128.444C92.0978 127.835 92.2678 127.211 92.4521 126.588C92.5513 126.276 92.693 125.992 92.8064 125.681C92.8874 125.488 92.9292 125.28 92.9292 125.071C92.9292 124.862 92.8874 124.655 92.8064 124.462C92.7434 124.321 92.7109 124.169 92.7109 124.015C92.7109 123.862 92.7434 123.709 92.8064 123.569C92.8466 123.449 92.9152 123.341 93.0064 123.254C93.0976 123.167 93.2086 123.103 93.3298 123.068C93.4511 123.034 93.579 123.029 93.7026 123.054C93.8261 123.08 93.9417 123.135 94.0392 123.215C94.2424 123.342 94.4116 123.517 94.5326 123.725C94.6535 123.932 94.7225 124.165 94.7336 124.405C94.7411 124.806 94.6982 125.206 94.6061 125.596C94.4365 126.082 94.4365 126.611 94.6061 127.098C94.7478 127.48 94.9037 127.835 95.0312 128.217C95.1395 128.502 95.2202 128.796 95.2721 129.096C95.3182 129.479 95.2227 129.867 95.0036 130.185C94.7844 130.503 94.4566 130.731 94.0818 130.825C93.7356 130.95 93.3542 130.936 93.0183 130.785C92.6823 130.635 92.4183 130.359 92.282 130.017C92.0647 129.52 91.9444 128.986 91.9277 128.444Z" fill="#A5F9CF"/>
<path d="M20.6738 127.778C20.7693 127.449 20.8975 127.131 21.0565 126.828C21.3644 126.405 21.5815 125.922 21.6942 125.411C21.7592 125.193 21.8759 124.994 22.0343 124.83C22.1242 124.715 22.2533 124.637 22.397 124.611C22.5407 124.585 22.689 124.612 22.8137 124.688C22.9475 124.745 23.0567 124.847 23.1217 124.977C23.1866 125.107 23.203 125.256 23.168 125.397C23.1744 125.487 23.1744 125.577 23.168 125.666C23.0121 126.077 22.9539 126.519 22.9979 126.956C23.0386 127.221 23.023 127.492 22.9522 127.75C22.8814 128.009 22.7569 128.25 22.5869 128.458C22.2043 128.897 21.85 129.039 21.4391 128.883C21.2139 128.799 21.0198 128.648 20.883 128.45C20.7462 128.253 20.6732 128.018 20.6738 127.778Z" fill="#A5F9CF"/>
<path d="M74.9503 73.6157C74.7483 73.4927 74.5284 73.4018 74.2985 73.3464C73.4487 73.2533 72.5958 73.4918 71.9177 74.0124L71.5634 74.2959C70.6613 75.11 69.9 76.0676 69.3102 77.1301C68.3953 78.6763 67.6584 80.3213 67.1137 82.0334C65.6328 86.0696 65.2466 90.4259 65.9942 94.6598C66.1367 95.4925 66.4932 96.2739 67.0286 96.9273C67.3553 97.3727 67.83 97.6873 68.3675 97.8145C68.9051 97.9418 69.4704 97.8734 69.9621 97.6216C70.4455 97.3891 70.8901 97.0831 71.28 96.7147C71.7968 96.2117 72.2708 95.6666 72.6971 95.0849C73.7545 93.6055 74.5855 91.9769 75.1629 90.2526C76.2833 87.2252 76.9194 84.0401 77.0477 80.8146C77.1337 79.3441 77.0048 77.869 76.665 76.4357C76.4775 75.3101 75.8634 74.3001 74.9503 73.6157ZM73.6324 87.5176C73.2586 89.0604 72.6719 90.5436 71.8894 91.9248C71.5443 92.5627 71.094 93.1376 70.5573 93.6254C70.371 93.8758 70.1178 94.0684 69.8268 94.1813C69.5358 94.2942 69.2189 94.3227 68.9125 94.2635C68.606 94.2043 68.3225 94.0598 68.0946 93.8466C67.8666 93.6334 67.7034 93.3603 67.6238 93.0585C67.2292 92.1641 67.0126 91.2014 66.9861 90.2242V89.2464C67.0204 85.9534 67.8313 82.715 69.3527 79.7943C69.6277 79.2921 69.9504 78.8175 70.3164 78.3772C70.5861 78.0547 70.9011 77.7731 71.2517 77.541C71.4236 77.4078 71.6224 77.3134 71.8343 77.2645C72.0462 77.2156 72.2663 77.2133 72.4792 77.2578C72.6921 77.3022 72.8928 77.3924 73.0675 77.5221C73.2421 77.6517 73.3865 77.8178 73.4907 78.0087C73.9274 78.7062 74.1898 79.4984 74.256 80.3186C74.5104 82.7361 74.2988 85.1799 73.6324 87.5176Z" fill="white"/>
<path d="M50.0508 74.9481L50.2634 74.4805L50.0508 74.9481Z" fill="white"/>
<path d="M59.334 90.4938C60.2746 88.432 60.9737 86.2683 61.4171 84.0459C61.1031 85.4369 60.7104 86.809 60.2409 88.1556C59.9575 88.9917 59.6599 89.7143 59.334 90.4938Z" fill="white"/>
<path d="M51.0156 73.021C51.1432 72.7659 51.299 72.5251 51.4408 72.2842C51.2855 72.5217 51.1435 72.7677 51.0156 73.021Z" fill="white"/>
<path d="M61.643 82.9399C61.643 83.0391 61.643 83.1384 61.643 83.2376C61.643 83.3368 61.6288 83.0391 61.643 82.9399Z" fill="white"/>
<path d="M50.3359 74.3383C50.5202 73.9557 50.7186 73.5731 50.917 73.1904C50.7044 73.5731 50.5202 73.9557 50.3359 74.3383Z" fill="white"/>
<path d="M50.916 109.285C51.1699 109.318 51.4281 109.296 51.6728 109.22C51.9174 109.144 52.1427 109.017 52.3331 108.845C52.0249 109.063 51.6712 109.209 51.2986 109.27L50.916 109.285Z" fill="white"/>
<path d="M55.2819 103.659C55.8204 103.474 56.699 103.205 55.8771 100.739C55.2678 98.7554 55.0127 96.3038 56.1464 95.3118C57.4762 93.8994 58.5546 92.2698 59.3349 90.4936C59.6608 89.7425 59.9584 88.9915 60.2418 88.2121C60.7113 86.8655 61.104 85.4934 61.418 84.1024L61.5881 83.238C61.5881 83.1388 61.5881 83.0395 61.5881 82.9403C61.8067 81.6643 61.958 80.3777 62.0416 79.0858C62.4384 73.304 61.2338 70.3847 60.1426 68.9534C59.6364 68.2943 58.9121 67.837 58.0995 67.663C57.2868 67.489 56.4388 67.6099 55.7071 68.004C53.9284 69.0063 52.4581 70.4766 51.4557 72.2553C51.314 72.4962 51.1581 72.7372 51.0306 72.9922C50.9923 73.0457 50.9591 73.1027 50.9314 73.1623C50.733 73.5449 50.5346 73.9275 50.3504 74.3101V74.4518L50.1378 74.9195C49.0006 77.5746 48.1916 80.3585 47.7287 83.2096C45.8156 93.7104 49.6418 97.1257 49.6843 97.1682C50.3403 97.6286 50.8358 98.2827 51.1014 99.0388C51.2034 99.8724 51.0503 100.717 50.6621 101.462C50.237 102.695 49.3725 106.266 50.6621 107.343C50.9314 107.57 51.0873 107.556 51.1581 107.542C51.379 107.527 51.5903 107.446 51.7646 107.309C51.939 107.173 52.0683 106.987 52.1359 106.776C52.5215 105.53 52.6232 104.213 52.4335 102.922C52.4015 102.71 52.4468 102.494 52.5611 102.312C52.6295 101.694 52.797 101.092 53.057 100.527C53.1172 100.325 53.2377 100.146 53.4023 100.014C53.5669 99.8825 53.7678 99.8042 53.9782 99.7899C54.049 100.05 54.1011 100.316 54.1341 100.583C54.1341 101.051 54.1341 101.533 54.1341 102.001C54.1484 102.276 54.1767 102.55 54.2191 102.823C54.2899 103.276 54.7009 103.885 55.2819 103.659ZM52.7736 93.0303C52.5722 93.2127 52.3304 93.3446 52.068 93.4152C51.8056 93.4858 51.5302 93.4929 51.2645 93.4362C50.9987 93.3795 50.7503 93.2604 50.5396 93.0888C50.329 92.9172 50.1621 92.698 50.0528 92.4492C49.5871 91.6351 49.2974 90.7323 49.2025 89.7992C49.1175 89.1473 49.1033 88.4671 49.0749 88.0136C49.1142 84.5376 49.8566 81.1054 51.2573 77.9238C51.6749 76.9585 52.2337 76.0606 52.9153 75.2596C53.1752 74.9573 53.4648 74.6819 53.7798 74.4376C53.9875 74.2441 54.2387 74.1034 54.5122 74.0273C54.7856 73.9512 55.0734 73.9419 55.3512 74.0002C55.6291 74.0586 55.8888 74.1828 56.1086 74.3626C56.3283 74.5423 56.5017 74.7722 56.614 75.0329C56.969 75.6658 57.2089 76.3568 57.3226 77.0735C57.5774 78.62 57.606 80.1953 57.4076 81.75C57.1682 84.1282 56.5958 86.4609 55.7071 88.6797C55.303 89.7506 54.7547 90.7614 54.0774 91.684C53.7052 92.1893 53.2667 92.6421 52.7736 93.0303Z" fill="white"/>
<path d="M50.916 73.1902C50.9437 73.1305 50.977 73.0735 51.0152 73.02C50.977 73.0735 50.9437 73.1305 50.916 73.1902Z" fill="white"/>
<path d="M61.5861 83.2383L61.416 84.1027L61.5861 83.2383Z" fill="white"/>
<path d="M74.8227 71.4898C75.3278 71.6474 75.8058 71.8816 76.2398 72.1842L76.0556 71.9858C75.7592 71.7 75.4041 71.4822 75.015 71.3476C74.6258 71.213 74.212 71.1648 73.8024 71.2064C73.0594 71.254 72.3394 71.4826 71.7051 71.8724C72.1698 71.5958 72.6869 71.4189 73.2237 71.3531C73.7604 71.2872 74.305 71.3338 74.8227 71.4898Z" fill="white"/>
<path d="M113.708 22.3726C113.071 21.7065 112.476 20.9554 111.781 20.4169C109.764 18.7421 107.485 17.4112 105.036 16.4774C99.6078 14.3806 93.8486 13.272 88.0302 13.2039C85.2616 13.137 82.4924 13.3125 79.7543 13.7282C76.8693 14.1226 74.0488 14.8944 71.365 16.0239C71.1413 16.1252 70.9089 16.2058 70.6706 16.2648C70.4772 16.279 70.283 16.279 70.0896 16.2648C70.1362 15.987 70.2428 15.7227 70.4019 15.4902C70.5609 15.2578 70.7687 15.0627 71.0107 14.9185C71.4548 14.5782 71.9291 14.2795 72.4278 14.0258C74.596 12.963 76.6791 11.9001 78.9324 10.894C83.4285 8.83401 88.1251 7.24319 92.9476 6.14665C94.6993 5.67444 96.4858 5.34271 98.2902 5.15465C98.3916 5.1231 98.491 5.08521 98.5878 5.04126C98.5878 4.63029 98.2902 4.53113 97.9642 4.46028C95.3159 3.79506 92.6022 3.42432 89.8725 3.35488C87.5066 3.28391 85.1386 3.3834 82.7869 3.65251C79.023 4.04706 75.3125 4.84522 71.7192 6.03326C67.2619 7.3698 63.1045 9.55432 59.4754 12.4669C59.3421 12.5499 59.1994 12.6165 59.0502 12.6653C58.866 12.2969 59.0502 12.0843 59.1919 11.8718C60.4453 9.72467 61.9641 7.74396 63.7125 5.97652C65.7497 3.79451 68.0879 1.9144 70.6564 0.393073C70.7556 0.393073 70.7981 0.223102 70.869 0.123904V0.0105103C70.6519 -0.00350343 70.4342 -0.00350343 70.2171 0.0105103C68.4148 0.394084 66.6709 1.01348 65.0304 1.85274C60.9513 3.87882 57.2317 6.55958 54.0194 9.78856C51.9169 11.7984 50.1513 14.1334 48.7903 16.7041C48.6579 16.9566 48.4687 17.1749 48.2376 17.3418C47.855 17.6678 47.5574 17.6111 47.3023 17.1576C46.3167 15.4275 45.0139 13.8986 43.4619 12.6512C41.6227 11.0281 39.4925 9.76823 37.1841 8.93833C36.7165 8.78244 36.2205 8.69742 35.767 8.58405C35.6535 8.54325 35.529 8.54524 35.4169 8.58958C35.3047 8.63392 35.2126 8.71756 35.1576 8.82493L35.4694 9.03753C36.0558 9.39541 36.6234 9.78328 37.1699 10.1996C38.7121 11.5495 40.0278 13.1379 41.067 14.9044C41.7864 16.005 42.3448 17.2027 42.725 18.4613C42.8549 18.9595 42.9496 19.4662 43.0085 19.9776C43.0421 20.1192 43.0284 20.2679 42.9696 20.401C42.9107 20.5341 42.8099 20.6442 42.6825 20.7146C41.8039 20.0202 40.982 19.2975 40.1317 18.7023C38.3905 17.3392 36.2854 16.5207 34.0806 16.3498C33.3939 16.2668 32.6973 16.3313 32.0375 16.539C31.3776 16.7467 30.7697 17.0929 30.2544 17.5544C30.2066 17.6047 30.1715 17.6656 30.1518 17.7321C30.1321 17.7986 30.1284 17.8688 30.141 17.937C30.2461 18.0623 30.3913 18.1475 30.552 18.178C30.6654 18.178 30.8071 18.178 30.9346 18.178C31.1597 18.1404 31.3869 18.1166 31.6148 18.107C32.2384 18.107 32.4368 18.433 32.3092 19.014C32.3092 19.1841 32.21 19.34 32.1675 19.51C31.9597 20.1622 31.7847 20.8243 31.6432 21.494C31.6033 21.8523 31.642 22.215 31.7566 22.5568C31.784 22.6902 31.8517 22.812 31.9505 22.9058C32.0493 22.9996 32.1745 23.0607 32.3092 23.0811C32.4438 23.091 32.5781 23.0579 32.6927 22.9866C32.8073 22.9153 32.8963 22.8095 32.9469 22.6844C33.0884 22.4147 33.1978 22.1292 33.2729 21.8341C33.3934 21.2688 33.3934 20.6846 33.2729 20.1194C33.1699 19.6054 33.2716 19.0716 33.5563 18.6314C34.6364 18.9558 35.5658 19.654 36.178 20.6012C37.7024 23.1037 38.7185 25.8823 39.1681 28.778C39.4869 30.5064 39.4869 32.2786 39.1681 34.0071C39.0732 34.9658 38.6931 35.8741 38.0769 36.6147C39.4595 36.8864 40.8055 37.3192 42.0873 37.9042C41.4638 37.9892 40.2734 38.0176 39.6641 38.0742C38.4879 38.2018 37.2975 38.2868 36.1354 38.4994C33.7661 38.9115 31.4444 39.562 29.2057 40.4408C20.9044 43.7041 13.6283 49.1306 8.13322 56.1567C5.57502 59.4012 3.52073 63.0129 2.03962 66.87C0.90468 69.8134 0.239955 72.9171 0.0698335 76.0671C-0.156985 79.0069 0.169885 81.9632 1.03347 84.7824C1.22088 85.3186 1.36773 85.8681 1.47278 86.4262C1.5946 87.3403 1.53684 88.2693 1.30272 89.1613C0.934273 90.7343 0.579996 92.3215 0.197374 93.8945C0.00816333 94.7368 0.118403 95.6188 0.509136 96.3886C0.676157 96.6556 0.907906 96.8762 1.18289 97.0298C1.45787 97.1834 1.76718 97.265 2.08214 97.2672C2.56396 97.2672 2.93241 96.7712 3.07412 96.0768V95.8501C3.07412 95.1274 3.07412 94.4329 3.15915 93.6819C3.15915 92.7324 3.15914 91.7829 3.27251 90.8476C3.27251 90.7201 3.4284 90.5926 3.51343 90.4509C3.6268 90.5359 3.78268 90.5926 3.85353 90.6918C4.22539 91.2527 4.47636 91.8849 4.59043 92.5482C4.65273 93.0314 4.76675 93.5065 4.93054 93.9653C5.1998 94.5888 5.55407 94.7022 6.1776 94.4188C6.34265 94.3453 6.52129 94.3074 6.70194 94.3074C6.88259 94.3074 7.06123 94.3453 7.22627 94.4188C7.7506 94.6455 8.18991 94.5038 8.72841 94.7589C11.4674 92.8246 14.6422 91.5976 17.9702 91.1871C21.2981 90.7767 24.6759 91.1956 27.8028 92.4065C29.7027 93.2691 31.54 94.2635 33.3012 95.3824C35.8059 97.0681 38.5473 98.3719 41.4355 99.2511C40.1304 96.3189 39.4407 93.1501 39.409 89.9407C39.2791 84.9713 40.0769 80.0213 41.7614 75.3444C46.7213 60.408 55.9326 60.3797 56.9104 60.4222C57.8882 60.4647 64.251 59.5436 67.6521 69.2083C69.5085 67.6637 71.6767 65.623 75.2195 66.3741C75.8894 66.5796 76.5089 66.9226 77.0384 67.3814C77.568 67.8402 77.9959 68.4045 78.2947 69.0382C77.8948 66.8872 77.2333 64.7933 76.3249 62.8029C73.2433 55.6998 68.5806 49.394 62.6922 44.3662C60.8154 42.5969 58.7142 41.0818 56.4427 39.8598C55.6109 39.5014 54.7474 39.2214 53.8636 39.0237C55.4126 38.8064 56.9807 38.759 58.5401 38.882C58.5401 38.5561 58.6393 38.2443 58.7101 37.9326C59.0881 36.4268 59.7053 34.9914 60.5382 33.6812C61.9077 31.4604 63.5874 29.4466 65.5264 27.7009C66.8887 26.4153 68.3963 25.2929 70.0187 24.3566C70.3474 24.1668 70.7073 24.0372 71.0815 23.9739C71.6342 23.9031 71.7901 24.0731 71.7334 24.6116C71.6818 25.009 71.6013 25.4022 71.4925 25.7879C71.2516 26.8365 70.9682 27.8569 70.7272 28.9055C70.5892 29.5859 70.6945 30.293 71.0248 30.9036C71.1361 31.1838 71.327 31.4252 71.5738 31.5982C71.8207 31.7712 72.1127 31.8682 72.414 31.8772C72.7153 31.8862 73.0127 31.8069 73.2695 31.649C73.5262 31.4911 73.7312 31.2616 73.8591 30.9887C74.0989 30.638 74.2399 30.2294 74.2673 29.8055C74.2947 29.3816 74.2076 28.9581 74.015 28.5795C73.6724 27.8139 73.5077 26.9806 73.5331 26.1421C73.5197 25.4693 73.7194 24.8095 74.1038 24.2571C74.4882 23.7047 75.0374 23.2881 75.673 23.0669C76.0381 22.8866 76.4583 22.8522 76.8479 22.9707C77.2375 23.0891 77.5674 23.3516 77.7703 23.7047C78.0306 24.0509 78.1973 24.4584 78.2544 24.8878C78.3115 25.3172 78.257 25.7541 78.0963 26.1563C77.1617 28.6213 76.6212 31.2181 76.4949 33.8513C76.4151 35.2802 76.5489 36.7131 76.8917 38.1026C77.0646 38.8882 77.4298 39.6186 77.9545 40.2283C78.1703 40.498 78.4413 40.7184 78.7493 40.8748C79.0572 41.0312 79.395 41.12 79.7401 41.1352C79.8834 41.1781 80.0361 41.1781 80.1794 41.1352C80.7169 40.8857 81.138 40.4394 81.3556 39.8882C81.7584 38.7521 81.9411 37.5498 81.8941 36.3454C81.8572 34.665 81.6193 32.9951 81.1856 31.3713C80.8738 30.2234 80.6896 29.0472 80.392 27.9135C80.274 26.7727 80.424 25.6202 80.8299 24.5475C81.2359 23.4749 81.8866 22.5118 82.7302 21.7349C83.1703 21.4278 83.6462 21.1755 84.1473 20.9838C84.6008 20.7996 84.8134 20.9129 85.0685 21.3097C85.3236 21.7065 85.3094 21.7915 85.4511 22.0183C85.5058 22.1646 85.5968 22.2946 85.7156 22.396C85.8343 22.4974 85.9769 22.567 86.13 22.5981C86.283 22.6293 86.4415 22.6211 86.5904 22.5742C86.7394 22.5273 86.874 22.4433 86.9816 22.3301C87.2583 22.1006 87.5016 21.8335 87.7043 21.5365C87.9173 21.2172 88.2031 20.953 88.5382 20.7658C88.8732 20.5785 89.248 20.4735 89.6316 20.4595C89.7637 20.4672 89.8962 20.4672 90.0284 20.4595C90.3557 20.3741 90.7027 20.4086 91.0068 20.5567C91.3109 20.7048 91.5519 20.9569 91.6864 21.2673C91.955 21.8237 92.398 22.277 92.948 22.5584C93.498 22.8398 94.1249 22.9338 94.7332 22.826C95.7987 22.6934 96.8392 22.407 97.8225 21.9758C99.6906 21.2943 101.674 20.9861 103.661 21.0688C103.95 21.0863 104.235 21.1386 104.511 21.2247C104.936 21.3522 105.021 21.5223 104.866 21.9474C104.71 22.3726 104.625 22.5426 104.497 22.8402C103.861 24.1236 103.303 25.4439 102.825 26.794C102.581 27.4079 102.494 28.0734 102.573 28.7294C102.653 29.3855 102.895 30.0112 103.278 30.5494C103.59 30.9877 104.016 31.3311 104.511 31.5413C104.818 31.6807 105.157 31.7371 105.492 31.7047C105.828 31.6724 106.15 31.5525 106.424 31.3571C106.755 31.1429 107.04 30.8645 107.262 30.5384C107.483 30.2122 107.637 29.8448 107.714 29.4581C107.799 28.9897 107.856 28.5164 107.884 28.041C107.895 27.1424 107.786 26.2463 107.558 25.3768C107.433 24.7856 107.385 24.1807 107.416 23.5772C107.41 23.3962 107.444 23.2159 107.515 23.0495C107.587 22.883 107.694 22.7343 107.829 22.6139C107.964 22.4935 108.124 22.4043 108.298 22.3528C108.472 22.3013 108.654 22.2887 108.834 22.3159C110.054 22.325 111.27 22.4627 112.461 22.7268L114.02 23.0953C114.065 22.9575 114.058 22.8081 114.001 22.675C113.943 22.542 113.839 22.4344 113.708 22.3726ZM23.8632 63.809C23.5986 63.9391 23.3078 64.0068 23.0129 64.0068C22.7181 64.0068 22.4272 63.9391 22.1627 63.809C21.8545 63.7387 21.5665 63.5987 21.3208 63.3997C21.0752 63.2008 20.8784 62.9481 20.7456 62.6612C20.2071 61.4708 20.7456 59.6144 21.3833 58.0273C18.1806 60.6773 17.4862 65.6797 17.4862 65.7364C16.7351 70.7671 15.2897 73.7289 13.2348 74.565C12.8432 74.7238 12.4246 74.8056 12.002 74.8059C11.1835 74.7879 10.391 74.5155 9.73457 74.0265C7.97734 72.7794 6.31932 70.1294 8.61504 64.801C9.82145 62.0687 11.5829 59.6172 13.7875 57.6021C18.0389 53.62 21.1282 50.8849 21.1282 50.8849C19.5952 53.9054 17.5034 56.6078 14.9637 58.8491C12.9288 60.7044 11.3024 62.9631 10.188 65.4813C8.77093 68.9249 8.91264 71.3339 10.7691 72.666C11.0314 72.8619 11.3374 72.9914 11.6607 73.0432C11.984 73.095 12.315 73.0677 12.6255 72.9636C13.4616 72.6235 15.0062 71.2064 15.8423 65.4954C15.8423 65.2687 16.6359 59.5719 20.5755 56.5251C21.8226 55.2639 22.8004 54.6262 23.4097 54.6829C23.5697 54.6882 23.7265 54.7291 23.8687 54.8027C24.0109 54.8762 24.1349 54.9805 24.2317 55.108C24.3292 55.2498 24.3814 55.4177 24.3814 55.5898C24.3814 55.7618 24.3292 55.9299 24.2317 56.0716C23.1547 57.8572 21.7942 60.9465 22.2477 61.9385C22.3518 62.0982 22.5148 62.2102 22.7012 62.2502C22.9012 62.3 23.1105 62.3 23.3105 62.2502C23.8207 61.9952 25.167 60.8331 26.4565 55.6606C26.4565 55.6039 27.2643 61.9384 23.8632 63.809ZM53.9344 47.0162C54.0044 46.8845 54.1031 46.7702 54.2233 46.6819C54.3436 46.5935 54.4822 46.5334 54.6288 46.5061C54.8555 46.5061 55.5074 46.3077 57.2788 47.5973C59.6474 49.1383 61.4021 51.4594 62.2387 54.1585C63.6558 58.6224 65.073 59.3735 65.6115 59.4868C65.8315 59.5211 66.0565 59.503 66.2682 59.4341C66.48 59.3651 66.6725 59.2473 66.8302 59.0901C68.0772 57.843 67.8647 55.9583 66.235 53.4216C65.0203 51.5742 63.438 49.9967 61.5869 48.7876C59.3435 47.4181 57.4125 45.5933 55.9184 43.431C58.2159 44.6035 60.4401 45.9144 62.5788 47.3563C64.6216 48.6976 66.3676 50.4435 67.7088 52.4863C70.373 56.5818 69.3952 58.9767 68.1056 60.2662C67.5227 60.8618 66.7282 61.2032 65.8949 61.2158C65.6923 61.2361 65.4881 61.2361 65.2855 61.2158C63.4291 60.8048 61.8986 58.6791 60.6374 54.7112C60.0027 52.7524 58.8465 51.0034 57.293 49.6521C57.8821 50.5466 58.1333 51.6217 58.0016 52.6847C57.9255 52.9585 57.7857 53.2104 57.5935 53.4197C57.4014 53.6291 57.1625 53.79 56.8962 53.8892C56.4736 54.1521 55.9648 54.2387 55.4791 54.1302C54.062 53.8609 52.8432 52.3871 51.5112 49.6238C51.0293 48.6318 49.428 45.1173 49.428 45.1173C49.8656 45.3268 50.279 45.5833 50.6609 45.8826C51.6869 46.6792 52.5079 47.7091 53.0558 48.8868C54.4729 51.7211 55.3799 52.3021 55.72 52.4296C55.7978 52.4578 55.8831 52.4578 55.9609 52.4296C56.0366 52.3706 56.1233 52.3272 56.216 52.3021C56.2655 52.286 56.3096 52.2565 56.3435 52.217C56.5277 51.5368 55.2807 49.4678 54.062 47.9657C53.9495 47.8376 53.8773 47.6792 53.8546 47.5103C53.832 47.3414 53.8597 47.1694 53.9344 47.0162Z" fill="#A5F9CF"/>
<path d="M108.154 100.966C110.782 95.5773 111.82 89.5504 111.144 83.5926C111.144 82.9407 110.96 82.2888 110.861 81.6228C110.622 81.7863 110.399 81.9713 110.195 82.1755C108.777 83.6918 107.559 85.2506 106.198 86.7386C103.014 90.2782 99.5287 93.5355 95.7825 96.4742C92.6856 98.9397 89.2909 101.006 85.6784 102.624C82.8024 103.933 79.6961 104.66 76.538 104.764C75.9476 104.931 75.3375 105.016 74.7241 105.019C74.4552 105.038 74.1853 105.038 73.9164 105.019C66.8308 103.687 65.4137 98.9824 64.8326 97.2961C62.8062 90.5364 65.2578 81.7928 65.3853 81.3677C65.7254 80.4041 68.2196 73.8854 71.7198 71.9297C72.3541 71.5399 73.0742 71.3112 73.8172 71.2636C74.2268 71.2221 74.6406 71.2703 75.0297 71.4049C75.4188 71.5395 75.774 71.7573 76.0704 72.0431L76.2546 72.2415C77.4659 73.1404 78.3074 74.4506 78.6212 75.926C78.7346 75.3167 78.8763 74.2821 78.9471 73.5027C76.8923 69.7048 74.9509 69.0529 74.9225 69.0529H74.8091C72.5559 68.0185 68.4746 71.3204 67.2276 72.5533L66.0514 73.7011L65.7821 72.0856C64.0249 62.0241 57.8746 62.676 57.6195 62.7185H57.4495C57.1094 62.7185 48.6917 62.3358 43.9869 76.4786C42.374 80.9462 41.6051 85.6746 41.7195 90.4231C42.2438 98.9258 44.412 100.839 44.4403 100.867L46.4101 102.469C46.4101 102.469 45.1064 102.469 44.8088 102.327H43.8168C38.3893 101.845 30.9636 96.4742 30.1983 95.9073C20.8028 90.9758 13.7881 94.0084 10.6705 96.0207L10.5146 96.1341C10.1745 96.3892 9.87687 96.6868 9.53676 96.9135C8.87714 97.3615 8.3338 97.9602 7.95181 98.6602C7.56981 99.3601 7.36016 100.141 7.34023 100.938C7.25698 102.236 7.43529 103.537 7.86457 104.764C8.91189 107.785 10.4855 110.596 12.5127 113.069C13.426 114.081 14.0651 115.31 14.3691 116.64C14.4967 117.32 14.5817 118.057 14.6526 118.737C14.7579 120.575 14.3611 122.407 13.5047 124.037C13.3621 124.328 13.2482 124.631 13.1646 124.944C12.9311 126.008 12.9311 127.111 13.1646 128.175C13.2666 128.998 13.6009 129.774 14.1282 130.414C14.2596 130.596 14.4321 130.743 14.6317 130.845C14.8312 130.947 15.052 131 15.2761 131C15.5001 131 15.721 130.947 15.9205 130.845C16.12 130.743 16.2926 130.596 16.4239 130.414C16.7666 130.03 17.0399 129.588 17.2317 129.11C17.8545 127.575 17.9197 125.87 17.4159 124.292C17.0749 123.336 16.893 122.331 16.8774 121.316C16.8321 120.555 16.9232 119.792 17.1467 119.063C17.2672 118.767 17.4934 118.526 17.7814 118.387C18.0695 118.248 18.3988 118.222 18.7055 118.312C18.9621 118.385 19.1869 118.542 19.3436 118.758C19.5004 118.973 19.5801 119.236 19.5699 119.502C19.5699 119.828 19.5699 120.154 19.5699 120.466C19.5922 120.659 19.6675 120.842 19.7876 120.995C19.9077 121.147 20.0679 121.263 20.2502 121.33C20.5131 121.466 20.8046 121.537 21.1004 121.537C21.3962 121.537 21.6878 121.466 21.9507 121.33C22.4694 121.133 23.0346 121.092 23.5762 121.213C24.1178 121.334 24.612 121.611 24.9975 122.011C25.2481 122.299 25.5284 122.56 25.8336 122.79C26.1902 123.127 26.6447 123.341 27.1314 123.402C27.618 123.464 28.1115 123.368 28.5403 123.13C28.6929 123.057 28.86 123.019 29.0292 123.019C29.1984 123.019 29.3654 123.057 29.5181 123.13C32.949 124.204 36.4606 125 40.0189 125.511C42.2155 125.837 44.4262 126.191 46.6369 126.489C48.1532 126.687 49.6695 126.871 51.1858 126.956C43.6278 124.775 36.4561 121.428 29.9291 117.037L29.4047 116.909C27.9876 116.64 26.6839 116.526 25.3234 116.328C24.3881 116.186 23.4528 115.974 22.4892 115.875C21.5535 115.775 20.6343 115.556 19.7542 115.223C18.9623 114.913 18.2503 114.428 17.671 113.806C17.1946 113.344 16.855 112.759 16.69 112.116C16.5249 111.474 16.5408 110.798 16.7357 110.164C16.9814 109.323 17.2699 108.495 17.6002 107.684C17.8411 107.003 18.1387 106.337 18.3937 105.657V105.487C17.5599 104.185 16.8663 102.798 16.3247 101.349C16.1092 101.532 15.9352 101.759 15.8146 102.015C15.7059 102.28 15.6646 102.567 15.6943 102.851C15.724 103.136 15.8237 103.408 15.9846 103.645C15.5962 103.568 15.2449 103.363 14.9877 103.062C14.7305 102.761 14.5824 102.382 14.5675 101.987C14.5992 101.297 14.8478 100.636 15.2779 100.096C15.708 99.5568 16.2976 99.1669 16.9625 98.9824C17.9663 98.5501 19.0832 98.4546 20.1459 98.7101C21.2086 98.9655 22.16 99.5582 22.8577 100.4C23.0676 100.769 23.1567 101.195 23.1127 101.618C22.5276 101.13 21.8482 100.767 21.1168 100.553C20.3854 100.338 19.6177 100.276 18.8614 100.371C19.8392 103.007 26.9106 118.709 59.1358 126.276C60.3546 126.418 61.5874 126.574 62.8203 126.63C64.7115 126.709 66.6058 126.652 68.4888 126.46C71.5299 126.166 74.5317 125.553 77.445 124.632C80.6931 123.513 83.8812 122.226 86.9963 120.778L87.6199 120.508C87.7069 120.8 87.7685 121.099 87.8041 121.401C87.8041 121.996 87.8041 122.592 87.8041 123.173C87.7787 123.645 87.7787 124.118 87.8041 124.59C87.848 124.925 87.9589 125.248 88.13 125.539C88.2284 125.696 88.3712 125.82 88.5402 125.896C88.7092 125.972 88.8969 125.995 89.0795 125.964C89.5019 125.92 89.8934 125.722 90.1805 125.409C90.4675 125.096 90.6303 124.689 90.6383 124.264C90.6026 123.849 90.5169 123.44 90.3833 123.045C90.199 122.351 89.9298 121.628 89.8022 120.962C89.6752 120.483 89.7404 119.973 89.984 119.542C90.2276 119.11 90.6302 118.791 91.106 118.652C91.4611 118.514 91.8327 118.424 92.2113 118.383C93.0712 118.297 93.9001 118.016 94.6346 117.561C95.2258 117.224 95.7153 116.735 96.0517 116.144L96.3918 115.549C96.6186 115.18 96.8028 115.109 97.1854 115.322C97.35 115.417 97.5064 115.526 97.6531 115.648C97.8662 115.807 98.0886 115.954 98.3191 116.087C98.4485 116.154 98.5909 116.192 98.7364 116.198C98.8819 116.204 99.027 116.179 99.1618 116.124C99.2965 116.068 99.4177 115.985 99.5169 115.878C99.616 115.771 99.6909 115.644 99.7362 115.506C99.8354 115.251 99.8779 114.953 99.963 114.684C100.176 113.99 100.402 113.267 100.629 112.615C100.629 112.417 100.771 112.148 101.068 112.162C101.366 112.176 101.366 112.473 101.451 112.672C101.532 112.823 101.59 112.985 101.621 113.154C101.763 113.933 101.876 114.698 102.004 115.478C102.041 116.618 101.951 117.759 101.734 118.879C101.547 120.752 101.85 122.642 102.613 124.363C102.865 124.882 103.195 125.36 103.591 125.78C103.758 126.006 103.979 126.187 104.234 126.306C104.489 126.426 104.769 126.48 105.05 126.465C105.331 126.449 105.603 126.365 105.843 126.218C106.083 126.071 106.283 125.867 106.425 125.624C106.845 125.107 107.154 124.509 107.332 123.867C107.748 122.491 107.893 121.047 107.757 119.616C107.691 118.568 107.436 117.541 107.006 116.583C106.218 114.878 105.779 113.033 105.716 111.156C105.699 109.857 105.818 108.561 106.071 107.287C106.496 105.101 107.196 102.977 108.154 100.966ZM63.8123 79.2137C62.9762 91.3868 57.5203 96.3891 57.2794 96.6017C56.9276 97.8025 57.0181 99.0897 57.5345 100.23C58.3706 102.922 57.8037 104.623 55.834 105.289C55.543 105.395 55.2333 105.441 54.9239 105.424C54.6144 105.407 54.3117 105.327 54.0342 105.189C53.959 105.969 53.8022 106.738 53.5666 107.485L53.4815 107.655C53.1625 108.123 52.7588 108.527 52.2912 108.846C52.1008 109.017 51.8755 109.145 51.6308 109.221C51.3862 109.297 51.128 109.318 50.8741 109.285C50.3229 109.258 49.7976 109.043 49.3861 108.676C47.0053 106.621 48.7342 101.462 48.9326 100.881V100.796C49.1556 100.388 49.268 99.9292 49.2585 99.4643C49.0922 99.0973 48.8334 98.7799 48.5075 98.5431C48.2807 98.3589 43.8168 94.5327 45.9141 82.9549C45.9141 82.4589 47.7847 70.045 54.9695 66.4455L55.508 66.2187L55.9332 65.992C56.7629 65.5951 57.705 65.4999 58.5973 65.7228C59.4942 65.9381 60.2986 66.4347 60.8931 67.1399C61.1283 67.3589 61.3462 67.5958 61.5449 67.8484C63.4014 70.3426 64.1099 74.1263 63.8123 79.2137Z" fill="#A5F9CF"/>
</svg>
