<svg width="356" height="93" viewBox="0 0 356 93" fill="none" xmlns="http://www.w3.org/2000/svg">
<path d="M124.739 24.0877C126.296 22.9683 128.214 22.4691 130.119 22.6877C132.513 23.0581 134.961 22.8068 137.229 21.9577C140.706 20.5807 144.572 20.5521 148.069 21.8777C150.847 22.8019 153.78 23.1656 156.699 22.9477C159.541 22.933 162.382 23.0732 165.209 23.3677C165.898 23.4583 166.553 23.7158 167.119 24.1177C168.739 25.1777 169.119 26.5077 167.839 27.9877C166.389 29.7477 164.689 31.3077 163.109 32.9877C162.819 33.2777 162.549 33.5977 162.109 33.9877C162.589 34.1177 162.849 34.2177 163.109 34.2677C165.866 34.7234 168.459 35.8805 170.639 37.6277C171.086 37.9523 171.434 38.3939 171.646 38.9038C171.858 39.4137 171.925 39.9722 171.839 40.5177C171.724 41.6069 171.365 42.6562 170.789 43.5877C169.133 45.9478 167.319 48.193 165.359 50.3077C162.539 53.3077 159.669 53.6277 156.009 51.7577C152.576 49.9289 148.784 48.8742 144.899 48.6677C142.432 48.6161 140.021 47.9271 137.899 46.6677C134.986 44.9148 131.542 44.2622 128.189 44.8277C128.099 44.8277 127.999 44.8277 127.829 44.5777C128.64 44.2074 129.493 43.9386 130.369 43.7777C132.169 43.5306 133.996 43.5813 135.779 43.9277C138.521 44.7507 141.435 44.8129 144.209 44.1077C145.714 43.6502 147.301 43.524 148.859 43.7377C149.949 43.9377 150.549 43.2977 150.369 42.1777C150.147 40.9243 149.85 39.6854 149.479 38.4677C148.849 36.2177 148.099 34.0077 147.539 31.7477C146.759 28.6577 143.239 26.0877 139.689 25.9677C137.545 25.8847 135.408 25.671 133.289 25.3277C132.113 25.0609 130.969 24.6652 129.879 24.1477C128.467 23.6127 126.919 23.553 125.469 23.9777C125.228 24.0268 124.984 24.0635 124.739 24.0877ZM156.959 38.0877C156.392 38.3175 155.875 38.6573 155.439 39.0877C155.259 39.3277 155.679 40.2877 156.079 40.6377C157.61 41.8861 158.749 43.549 159.359 45.4277C159.494 45.6616 159.684 45.8594 159.912 46.004C160.14 46.1485 160.4 46.2356 160.669 46.2577C161.568 46.229 162.43 45.8987 163.118 45.32C163.805 44.7413 164.278 43.9479 164.459 43.0677C164.504 42.7919 164.491 42.5097 164.421 42.2393C164.35 41.9688 164.223 41.7162 164.049 41.4977C162.159 39.5642 159.65 38.3572 156.959 38.0877ZM155.759 35.0177C159.229 34.5277 161.969 33.3377 163.759 30.5577C164.219 29.8477 164.649 29.1277 165.159 28.4677C165.539 27.9777 165.979 27.5277 165.469 26.9477C165.368 26.7917 165.235 26.6587 165.079 26.5574C164.923 26.456 164.747 26.3885 164.563 26.3593C164.379 26.3301 164.191 26.3398 164.012 26.3878C163.832 26.4357 163.664 26.5209 163.519 26.6377C162.953 27.0817 162.463 27.6153 162.069 28.2177C160.579 30.5277 159.069 32.7777 155.959 32.9977C155.85 32.9936 155.744 33.0291 155.659 33.0977C155.299 33.4677 154.959 33.8477 154.659 34.2177L155.759 35.0177Z" fill="#0FDC82"/>
<path d="M270.749 38.8577C270.495 40.4644 270.747 42.1103 271.469 43.5678C272.02 44.6753 272.439 45.8431 272.719 47.0477C272.956 48.1292 272.757 49.2604 272.165 50.1962C271.574 51.132 270.637 51.7972 269.559 52.0477C267.879 52.4977 266.119 52.6577 264.399 53.0477C263.279 53.2677 262.179 53.5877 260.909 53.7377C261.898 52.8681 262.962 52.0883 264.089 51.4077C266.309 50.2677 267.409 48.6078 267.089 46.1278C266.859 43.9578 266.539 41.7978 266.299 39.6278C266.173 38.8344 266.136 38.0293 266.189 37.2277C266.691 33.2299 266.228 29.17 264.839 25.3878C264.658 24.9865 264.576 24.5475 264.599 24.1077C264.689 23.5777 264.879 22.7378 265.199 22.6378C265.857 22.5112 266.538 22.6025 267.139 22.8978C267.726 23.2599 268.278 23.6749 268.789 24.1378C271.327 25.9078 273.255 28.4192 274.309 31.3278C275.019 33.1578 275.719 34.9978 276.449 36.8378C276.799 37.7278 277.199 38.5977 277.579 39.4777L277.899 39.4077C277.967 39.0352 277.991 38.6558 277.969 38.2777C277.289 34.3377 276.559 30.3978 275.889 26.4478C275.632 25.1292 275.488 23.7909 275.459 22.4478C275.459 20.9078 276.229 20.3577 277.749 20.6677C278.999 20.9177 280.239 21.2477 281.479 21.5377C282.345 21.782 283.254 21.8362 284.143 21.6964C285.032 21.5566 285.88 21.2261 286.629 20.7277C287.858 19.8285 289.347 19.3546 290.869 19.3778C288.559 20.0778 287.369 21.9578 285.999 23.6878C285.504 24.2695 284.899 24.7485 284.219 25.0977C283.777 25.2788 283.418 25.6172 283.211 26.0475C283.005 26.4779 282.965 26.9696 283.099 27.4278C283.819 31.0778 284.289 34.7878 285.259 38.3678C286.339 42.3678 285.729 46.2477 285.129 50.1777C285.029 50.8678 284.889 51.5477 284.769 52.1777C284.549 53.3577 283.959 53.8077 282.849 53.4077C281.902 53.1587 281.03 52.6815 280.309 52.0178C277.479 48.6278 274.749 45.1577 272.069 41.6577C271.538 40.77 271.096 39.8321 270.749 38.8577Z" fill="#0FDC82"/>
<path d="M125.679 77.7076C125.549 78.8976 125.499 80.1076 125.259 81.2676C124.899 83.0476 124.449 84.8175 123.919 86.5475C123.831 86.7912 123.685 87.0097 123.493 87.184C123.302 87.3583 123.07 87.4831 122.819 87.5475C122.56 87.5231 122.31 87.4368 122.091 87.2958C121.872 87.1549 121.689 86.9635 121.559 86.7375C121.051 85.7328 120.685 84.6627 120.469 83.5576C120.217 81.3882 119.408 79.3212 118.119 77.5576C116.582 75.6897 115.531 73.4704 115.059 71.0975C115.025 70.7558 114.922 70.4245 114.757 70.1234C114.592 69.8222 114.368 69.5574 114.098 69.3447C113.828 69.1319 113.519 68.9756 113.187 68.8851C112.856 68.7945 112.51 68.7716 112.169 68.8176C109.727 68.9826 107.291 68.4188 105.169 67.1976C103.991 66.575 102.625 66.4043 101.329 66.7175C100.78 66.8517 100.213 66.899 99.6494 66.8575C99.8105 66.7253 99.9809 66.605 100.159 66.4976C102.738 65.3528 105.519 64.7308 108.339 64.6675C109.419 64.6 110.473 64.3143 111.439 63.8276C113.969 62.5176 116.049 62.9176 117.599 65.3176C118.81 67.1017 119.697 69.0854 120.219 71.1776C120.692 72.7806 121.27 74.3506 121.949 75.8776C122.309 76.8776 122.629 77.8775 123.039 79.0275C123.468 77.7251 123.447 76.3165 122.979 75.0275C122.462 73.6173 122.437 72.0736 122.909 70.6476C123.359 68.9976 123.719 67.3276 124.109 65.6476C124.299 64.8576 124.439 63.8976 125.379 63.8076C126.319 63.7176 126.379 64.8076 126.649 65.4576C126.823 65.9025 126.888 66.3824 126.839 66.8575C126.699 69.9275 128.619 72.4476 129.079 75.3676C129.254 76.4709 129.542 77.5533 129.939 78.5975C129.969 78.3317 129.969 78.0634 129.939 77.7975C129.439 75.6875 129.939 73.6875 130.489 71.6575C130.909 69.9975 131.139 68.2975 131.489 66.6575C131.489 66.5175 131.489 66.3675 131.489 66.2175C131.749 63.3575 132.889 62.5676 135.649 63.3876C136.071 63.4982 136.483 63.6454 136.879 63.8276C139.739 65.2176 142.479 64.8276 145.179 63.3676C145.732 63.1213 146.304 62.9207 146.889 62.7676C146.889 63.0376 146.989 63.1375 146.969 63.1575C144.169 65.4175 141.599 68.0075 137.899 68.9075C136.439 69.2675 135.819 70.6675 135.429 71.9075C134.429 75.2475 133.159 78.5776 133.319 82.1476C133.439 84.6876 132.179 86.5276 130.609 88.2576C130.518 88.3904 130.392 88.4953 130.244 88.5605C130.097 88.6258 129.934 88.6489 129.775 88.6271C129.615 88.6053 129.464 88.5396 129.34 88.4373C129.215 88.3349 129.122 88.2 129.069 88.0475C128.562 86.9708 128.167 85.8449 127.889 84.6876C127.479 82.9576 127.259 81.1776 126.889 79.4376C126.689 78.8306 126.418 78.2498 126.079 77.7076H125.679Z" fill="#0FDC82"/>
<path d="M211.159 20.9378C213.033 20.6436 214.948 20.7665 216.769 21.2977C218.012 21.5443 219.267 21.7213 220.529 21.8278C222.339 22.0378 224.169 22.0877 225.949 22.4277C228.433 22.9128 230.999 22.7614 233.409 21.9877C235.118 21.493 236.869 21.1582 238.639 20.9877C238.868 20.9459 239.104 20.954 239.329 21.0114C239.555 21.0687 239.766 21.1741 239.947 21.3203C240.128 21.4664 240.276 21.65 240.38 21.8583C240.484 22.0667 240.541 22.295 240.549 22.5277C240.829 24.3477 241.779 26.1277 241.179 27.9877C240.906 29.1841 240.323 30.2877 239.489 31.1878C237.068 33.293 234.867 35.6383 232.919 38.1878C231.528 39.6821 229.856 40.8882 227.999 41.7377C227.467 42.1208 226.98 42.5637 226.549 43.0577C227.062 43.4646 227.627 43.8009 228.229 44.0577C230.201 44.7383 231.988 45.868 233.449 47.3577C234.558 48.4632 235.813 49.412 237.179 50.1777C239.929 51.5977 242.939 51.2577 245.889 50.9877C246.751 50.8355 247.624 50.7586 248.499 50.7578C247.963 51.2303 247.372 51.6365 246.739 51.9677C245.701 52.4165 244.608 52.7259 243.489 52.8878C240.952 53.2856 238.361 53.173 235.867 52.5565C233.374 51.9401 231.029 50.8322 228.969 49.2977C226.68 47.6989 223.961 46.8308 221.169 46.8077C220.17 46.7581 219.208 46.4097 218.409 45.8077C218.17 45.6258 217.974 45.392 217.837 45.124C217.7 44.8559 217.626 44.5605 217.619 44.2597C217.612 43.9588 217.674 43.6603 217.798 43.3864C217.923 43.1125 218.108 42.8703 218.339 42.6777C219.429 41.4517 220.601 40.3023 221.849 39.2377C224.499 36.9577 227.219 34.7378 229.899 32.4978C231.069 31.4978 232.279 30.5777 233.409 29.5477C233.689 29.2977 233.749 28.7977 233.909 28.4077C233.544 28.226 233.153 28.1044 232.749 28.0477C231.029 28.0477 229.309 28.1478 227.609 28.3378C226.378 28.5647 225.107 28.4261 223.954 27.9392C222.801 27.4523 221.815 26.6383 221.119 25.5977C219.718 23.7416 217.694 22.4528 215.419 21.9677C213.899 21.6277 212.359 21.2478 211.159 20.9378Z" fill="#0FDC82"/>
<path d="M320.85 89.3076C322.62 87.8176 324.33 86.2376 326.19 84.8776C326.979 84.4389 327.867 84.2084 328.77 84.2076C330.18 84.0876 331.63 84.2075 333.03 84.0475C333.877 83.8712 334.668 83.4862 335.33 82.9276C335.48 82.7193 335.581 82.48 335.626 82.2272C335.671 81.9745 335.659 81.7148 335.59 81.4675C335.51 81.1775 334.88 81.0075 334.48 80.8575C334.231 80.7875 333.968 80.7875 333.72 80.8575C330.72 81.3675 327.82 80.5975 324.88 80.3475C321.49 80.0475 320.33 77.3476 321.29 74.6876C322.249 72.4879 323.411 70.3822 324.76 68.3976C325.09 67.8376 325.63 67.3976 326.01 66.8776C327.63 64.5676 329.88 64.1776 332.43 64.7476C333.437 64.9426 334.425 65.2305 335.38 65.6075C336.145 65.9177 336.978 66.0191 337.795 65.9014C338.612 65.7837 339.383 65.4511 340.03 64.9376C341.94 63.7176 343.79 62.3876 346.03 61.9376C346.75 61.7976 347.5 61.7975 348.23 61.7275L348.32 62.1176C347.88 62.2776 347.45 62.4676 346.99 62.5876C346.241 62.7607 345.547 63.1199 344.974 63.632C344.401 64.1442 343.966 64.7927 343.71 65.5176C343.141 66.7886 342.472 68.0124 341.71 69.1776C341.324 69.8705 340.772 70.4565 340.104 70.8826C339.435 71.3086 338.671 71.5612 337.88 71.6176C335.69 71.7476 333.5 71.7975 331.3 71.8575C330.637 71.8317 329.982 71.9983 329.412 72.3373C328.842 72.6763 328.383 73.1731 328.09 73.7676C327.5 74.8876 327.81 75.6076 329.09 75.6476C330.65 75.7076 332.22 75.4775 333.79 75.4675C335.9 75.4675 338.01 75.4676 340.12 75.5176C340.412 75.5403 340.701 75.5974 340.98 75.6876C343.98 76.4776 344.93 77.9976 344.16 81.0176C343.701 82.9104 342.664 84.6133 341.192 85.8893C339.721 87.1654 337.888 87.9513 335.95 88.1376C334.13 88.3516 332.285 88.1743 330.54 87.6176C329.798 87.3464 329.009 87.2304 328.222 87.2769C327.434 87.3233 326.664 87.5312 325.96 87.8876C324.75 88.4776 323.5 89.0176 322.25 89.5176C321.815 89.6318 321.369 89.6955 320.92 89.7076L320.85 89.3076Z" fill="#0FDC82"/>
<path d="M209.869 52.9274C206.919 50.4274 203.379 49.6974 199.669 49.4274C198.662 49.4102 197.658 49.3031 196.669 49.1074C195.842 48.9059 195.069 48.5267 194.403 47.996C193.738 47.4654 193.196 46.796 192.815 46.0346C192.434 45.2732 192.224 44.438 192.199 43.5871C192.174 42.7362 192.334 41.89 192.669 41.1074C193.224 39.7957 193.872 38.5257 194.609 37.3074C196.378 34.2693 197.473 30.8861 197.819 27.3875C197.933 26.5565 198.141 25.7412 198.439 24.9575C198.662 24.0045 199.175 23.1443 199.907 22.4957C200.64 21.8472 201.556 21.4425 202.529 21.3375C204.769 21.0775 205.879 22.6174 206.799 24.1874C207.711 25.7908 208.497 27.4625 209.149 29.1874C210.03 31.7089 211.365 34.0476 213.089 36.0875C213.939 36.9986 214.59 38.076 215.001 39.2516C215.412 40.4273 215.575 41.6756 215.479 42.9174C215.401 43.9153 215.695 44.9068 216.304 45.7009C216.913 46.4949 217.795 47.0351 218.779 47.2174C220.929 47.8174 223.089 48.3574 225.219 48.9974C225.961 49.2462 226.643 49.6482 227.219 50.1774C226.029 50.0174 224.839 49.7974 223.639 49.7174C222.258 49.624 220.873 49.6007 219.489 49.6475C216.319 49.7675 213.269 49.4374 210.589 47.5574C209.659 46.9646 208.924 46.1103 208.478 45.1016C208.031 44.0928 207.893 42.9747 208.079 41.8875C208.112 41.5628 208.081 41.2348 207.986 40.9224C207.892 40.61 207.737 40.3194 207.529 40.0674C206.929 39.4974 206.169 39.9174 205.529 40.3674C204.199 41.3674 202.839 42.2574 201.529 43.2174C199.939 44.3474 199.929 45.5674 201.529 46.6874C202.358 47.2184 203.22 47.6961 204.109 48.1174C206.4 49.2167 208.379 50.8699 209.869 52.9274ZM206.959 33.0974C206.959 32.6674 206.909 32.2274 206.829 31.7974C206.499 30.1174 205.319 28.7974 204.159 28.8674C202.999 28.9374 201.809 30.2474 201.679 31.9274C201.543 34.6404 200.46 37.2198 198.619 39.2174C198.132 39.9202 197.82 40.7295 197.709 41.5775C197.695 41.7704 197.731 41.9637 197.814 42.1388C197.896 42.3139 198.022 42.4649 198.179 42.5775C198.362 42.6353 198.555 42.6527 198.745 42.6285C198.935 42.6044 199.117 42.5392 199.279 42.4374C200.749 41.5074 202.169 40.4374 203.629 39.5274C204.718 38.861 205.603 37.9098 206.19 36.7765C206.777 35.6432 207.043 34.3709 206.959 33.0974Z" fill="#0FDC82"/>
<path d="M285.58 62.0078C285.288 62.0986 285.011 62.2334 284.76 62.4078C284.118 62.9035 283.569 63.5097 283.14 64.1978C282.705 65.2628 282.019 66.2064 281.14 66.9478C280.143 67.8014 279.256 68.7755 278.5 69.8478C277.656 71.2848 276.412 72.4453 274.92 73.1878C275.599 74.6115 275.969 76.1625 276.007 77.7393C276.045 79.3161 275.75 80.8832 275.14 82.3378C274.09 85.1278 274.27 85.8278 277.56 86.7578C278.378 86.9126 279.183 87.1265 279.97 87.3978L276.21 87.7378C274.46 87.9178 272.72 88.1178 270.98 88.3078C268.17 88.5978 266.9 86.9378 267.98 84.3078C268.38 83.3078 268.98 82.4278 269.3 81.4278C269.668 80.2602 269.887 79.0505 269.95 77.8278C269.904 77.2187 269.653 76.6433 269.236 76.1962C268.82 75.7491 268.264 75.4569 267.66 75.3678C267.42 75.3678 267.1 75.6378 266.92 75.8678C266.164 76.7019 265.494 77.6098 264.92 78.5778C264.265 79.7306 263.831 80.9956 263.64 82.3078C263.47 84.3078 262.69 85.6778 260.74 86.1778C259.161 86.5676 257.557 86.8483 255.94 87.0178C254.45 87.1778 252.94 87.1578 251.17 87.2278C251.934 86.612 252.778 86.1039 253.68 85.7178C256.68 84.9278 258.27 82.9278 259.12 80.0378C259.84 77.5978 260.88 75.2478 261.73 72.8378C261.92 72.3078 261.89 71.6878 262.06 71.1378C262.34 70.2678 262.71 69.4178 263.14 68.3078C260.801 68.6913 258.696 69.9497 257.25 71.8278C257.215 71.1132 257.37 70.4019 257.698 69.7662C258.026 69.1305 258.517 68.5929 259.12 68.2078C260.26 67.3778 261.43 66.5878 262.5 65.6678C264.84 63.6678 267.63 63.5378 270.5 63.7278C271.77 63.8178 272.09 65.3478 271.18 66.7278C270.51 67.7278 269.82 68.7278 269.18 69.7278C269.057 70.0473 268.989 70.3855 268.98 70.7278C269.358 70.7264 269.735 70.6997 270.11 70.6478C270.58 70.5578 271.03 70.3978 271.48 70.2678C272.12 70.1193 272.72 69.833 273.238 69.4288C273.756 69.0247 274.18 68.5125 274.48 67.9278C275.32 66.2978 276.04 64.4778 277.95 63.7278C278.773 63.451 279.611 63.2206 280.46 63.0378C281.65 62.7178 282.84 62.3778 284.03 62.0378C284.52 61.9078 285.03 61.8378 285.51 61.7378L285.58 62.0078Z" fill="#0FDC82"/>
<path d="M165.289 20.1875C168.739 21.5875 172.349 20.7575 175.849 21.1075C177.739 21.2975 179.639 21.4675 181.499 21.8275C183.345 22.209 184.992 23.2419 186.139 24.7375C187.299 26.1875 187.199 26.9775 185.829 28.2175C185.239 28.7575 184.629 29.2875 184.039 29.8375C183.341 30.3579 182.863 31.121 182.701 31.9763C182.538 32.8316 182.701 33.717 183.159 34.4575C184.229 36.6975 185.259 38.9475 186.429 41.1375C186.909 41.982 187.161 42.9364 187.161 43.9075C187.161 44.8786 186.909 45.833 186.429 46.6775C186.329 46.8775 186.229 47.0675 186.139 47.2675C185.309 48.9475 185.809 49.7975 187.689 49.7475C190.257 49.6673 192.812 50.1556 195.169 51.1775C195.407 51.2657 195.622 51.4058 195.799 51.5875C192.549 51.2075 189.499 52.2775 186.369 52.5875C183.204 52.8742 180.023 52.941 176.849 52.7875C176.312 52.8206 175.778 52.6963 175.311 52.4296C174.844 52.163 174.465 51.7657 174.22 51.2866C173.976 50.8076 173.877 50.2676 173.935 49.733C173.994 49.1984 174.207 48.6925 174.549 48.2775C175.601 46.4944 176.434 44.5906 177.029 42.6075C177.255 41.7687 177.18 40.8774 176.819 40.0875C175.609 37.4875 174.249 34.9475 172.889 32.4075C172.72 32.1549 172.612 31.866 172.576 31.5641C172.539 31.2623 172.575 30.956 172.679 30.6704C172.783 30.3848 172.954 30.1279 173.176 29.9206C173.399 29.7133 173.667 29.5614 173.959 29.4775C175.139 28.8975 176.379 28.4775 177.589 27.9275C177.819 27.8275 178.059 27.7275 178.279 27.6075C179.549 26.8975 179.659 26.2375 178.589 25.2675C177.045 24.0037 175.203 23.1567 173.239 22.8075C172.029 22.5375 170.799 22.3675 169.569 22.1975C167.968 21.9884 166.472 21.2859 165.289 20.1875Z" fill="#0FDC82"/>
<path d="M310.24 88.7574C310.736 88.5187 311.251 88.3213 311.78 88.1674C312.67 87.9774 313.6 87.9374 314.49 87.7474C314.654 87.7137 314.809 87.6432 314.942 87.541C315.076 87.4388 315.184 87.3076 315.26 87.1574C315.272 86.9865 315.244 86.815 315.178 86.6569C315.112 86.4988 315.01 86.3585 314.88 86.2474C314.128 85.7289 313.343 85.2612 312.53 84.8474C310.82 83.9674 309.31 82.9374 309.02 80.8474C309.014 80.7741 308.986 80.7043 308.94 80.6474L307.48 79.1474C307.252 79.7213 307.062 80.3091 306.91 80.9074C306.87 81.3431 306.87 81.7816 306.91 82.2173C306.948 82.9326 306.8 83.6456 306.481 84.287C306.162 84.9284 305.683 85.4763 305.09 85.8774C303.28 87.1433 301.117 87.8048 298.91 87.7674C297.856 87.8677 296.808 88.0212 295.77 88.2274C296.236 87.829 296.731 87.4648 297.25 87.1374C298.076 86.669 298.939 86.2677 299.83 85.9374C300.592 85.7067 301.275 85.2698 301.804 84.6751C302.334 84.0804 302.689 83.351 302.83 82.5674C303.51 79.4774 304.3 76.3974 304.71 73.2674C304.782 71.6753 304.583 70.0823 304.12 68.5574C303.86 67.3674 303.37 67.2274 302.12 67.5574C301.833 67.6393 301.543 67.7061 301.25 67.7574L301.02 67.4174C301.504 66.8775 302.032 66.3791 302.6 65.9274C304.914 64.2857 307.693 63.4272 310.53 63.4774C312.283 63.5297 314.033 63.3105 315.72 62.8274C317.386 62.4297 319.088 62.2019 320.8 62.1474C321.427 62.1136 322.05 62.2779 322.579 62.617C323.108 62.9561 323.518 63.453 323.75 64.0374C323.897 64.5513 323.886 65.098 323.716 65.6051C323.547 66.1122 323.227 66.5559 322.8 66.8774C322.34 67.3474 321.8 67.7774 321.35 68.2074C319.76 69.4428 318.445 70.9958 317.49 72.7674C317.154 73.4423 316.639 74.0108 315.999 74.4099C315.36 74.8089 314.623 75.0226 313.87 75.0273C313.651 75.0426 313.434 75.0727 313.22 75.1174C313.22 75.1174 313.22 75.1173 313.3 75.0273C313.98 76.4573 314.6 77.8174 315.3 79.1574C315.619 79.8857 316.097 80.5333 316.699 81.0524C317.301 81.5716 318.012 81.9491 318.78 82.1574C319.405 82.3124 319.993 82.5915 320.508 82.978C321.023 83.3645 321.456 83.8505 321.78 84.4074C321.913 84.5726 322.01 84.7637 322.065 84.9686C322.12 85.1734 322.132 85.3875 322.1 85.5972C322.068 85.8069 321.993 86.0076 321.879 86.1867C321.765 86.3658 321.616 86.5193 321.44 86.6374C319.09 88.4474 316.6 89.7273 313.44 88.9673C312.443 88.8536 311.436 88.8536 310.44 88.9673L310.24 88.7574ZM308.98 72.5574C309.56 72.3974 310.47 72.1274 311.39 71.9074C312.551 71.5593 313.602 70.9156 314.44 70.0391C315.278 69.1626 315.874 68.0834 316.17 66.9074C316.3 66.1974 315.98 66.0374 315.38 66.1974C315.1 66.2857 314.829 66.3995 314.57 66.5374C312.72 67.5374 310.81 68.5374 309.04 69.6474C308.434 70.1832 307.988 70.8751 307.75 71.6474C307.47 72.3074 307.89 72.6474 308.96 72.5574H308.98Z" fill="#0FDC82"/>
<path d="M170.669 63.7474C172.319 62.4774 174.219 61.7474 176.059 62.7474C179.309 64.4974 182.549 64.3375 185.959 63.5075C187.338 63.186 188.763 63.1081 190.169 63.2774C190.641 63.3143 191.099 63.4513 191.514 63.6793C191.928 63.9072 192.289 64.2208 192.573 64.5993C192.857 64.9778 193.057 65.4124 193.16 65.8742C193.262 66.3359 193.266 66.8143 193.169 67.2774C192.959 68.7674 192.379 70.2175 192.029 71.6975C191.639 73.3475 191.239 75.0175 191.029 76.6975C190.86 78.8012 190.399 80.8711 189.659 82.8474C187.759 87.2074 183.789 88.2575 179.999 87.6375C178.435 87.2624 176.848 86.9885 175.249 86.8174C173.574 86.8655 171.903 87.0258 170.249 87.2974C170.307 87.1612 170.388 87.0361 170.489 86.9274C171.002 86.3546 171.576 85.8383 172.199 85.3875C177.849 82.0075 176.779 80.9674 177.799 76.2274C178.149 74.5974 178.679 73.0074 179.169 71.4074C179.729 69.5874 179.499 69.0574 177.919 67.9874C177.236 67.5663 176.66 66.991 176.239 66.3074C175.239 64.3074 174.049 63.5375 171.839 63.6375C171.449 63.6475 171.059 63.7074 170.669 63.7474ZM181.839 80.6375L181.639 80.6975L182.279 82.7474L183.939 81.1274L183.989 81.0274C185.399 78.3874 186.839 75.7674 188.199 73.1074C188.664 72.2016 189 71.2358 189.199 70.2374C189.519 68.4674 188.289 67.4974 186.619 68.1174C185.074 68.7867 183.859 70.042 183.239 71.6074C181.865 74.0917 181.382 76.9708 181.869 79.7675C181.889 80.0577 181.879 80.3493 181.839 80.6375Z" fill="#0FDC82"/>
<path d="M208.239 73.4177C207.094 75.1026 206.597 77.1449 206.839 79.1677C206.839 80.0377 207.039 80.9177 206.999 81.7877C206.869 84.4077 205.259 86.1278 203.189 87.4578C202.675 87.7331 202.076 87.8079 201.509 87.6677C199.572 87.0819 197.493 87.1665 195.609 87.9077C195.691 87.4695 195.868 87.0546 196.127 86.6919C196.386 86.3292 196.721 86.0274 197.109 85.8077C198.168 85.1671 199.109 84.3484 199.889 83.3878C200.618 82.0544 201.128 80.6127 201.399 79.1177C201.904 76.4997 202.923 74.008 204.399 71.7877C205.579 70.1177 206.769 68.4577 207.839 66.7177C208.539 65.5977 208.239 65.1678 206.939 65.0178C206.758 64.9782 206.571 64.9782 206.389 65.0178C203.809 65.8878 201.519 64.7477 198.949 63.9277C199.953 63.9349 200.956 63.8646 201.949 63.7177C203.018 63.5351 204.039 63.137 204.949 62.5477C205.797 61.8514 206.778 61.3368 207.833 61.0358C208.887 60.7347 209.992 60.6537 211.079 60.7977C214.635 61.2382 218.237 61.1573 221.769 60.5577C222.11 60.4755 222.466 60.4755 222.806 60.5578C223.147 60.64 223.463 60.8022 223.729 61.0308C223.995 61.2594 224.202 61.5479 224.334 61.8725C224.467 62.1971 224.52 62.5486 224.489 62.8978C224.488 63.594 224.32 64.2798 223.999 64.8978C222.859 67.0578 221.659 69.1977 220.399 71.2877C220.028 71.8711 219.52 72.3552 218.919 72.6977C216.537 74.1125 213.743 74.6733 210.999 74.2877C210.06 74.0647 209.137 73.774 208.239 73.4177ZM219.239 65.6577C219.239 64.2277 218.489 63.5777 217.439 63.9177C216.632 64.1194 215.893 64.5338 215.299 65.1177C213.979 66.7577 212.819 68.5377 211.649 70.2977C211.459 70.5777 211.539 71.0278 211.489 71.3978C211.862 71.4763 212.247 71.4763 212.619 71.3978C214.909 70.4578 217.089 69.3377 218.509 67.2177C218.805 66.7239 219.05 66.2012 219.239 65.6577Z" fill="#0FDC82"/>
<path d="M243.449 15.9775C245.219 19.3175 248.089 20.3275 251.539 20.1575C253.119 20.0775 254.619 20.1575 255.769 21.4175C255.959 21.5915 256.121 21.7939 256.249 22.0176C258.489 27.4876 260.569 33.0176 259.139 39.0176C258.849 40.2176 258.369 41.3675 258.019 42.5475C257.609 43.9075 257.179 45.2676 256.879 46.6476C256.759 47.2204 256.788 47.8145 256.963 48.373C257.138 48.9316 257.453 49.4359 257.879 49.8376C258.29 50.2716 258.602 50.7896 258.793 51.3558C258.984 51.922 259.05 52.523 258.986 53.1172C258.923 53.7114 258.731 54.2847 258.424 54.7975C258.117 55.3104 257.703 55.7506 257.209 56.0876C256.336 56.6212 255.368 56.9812 254.359 57.1476C254.979 56.5076 255.639 55.8876 256.199 55.1476C256.394 54.7831 256.522 54.3869 256.579 53.9775C256.214 53.8517 255.839 53.7547 255.459 53.6876C254.989 53.6876 254.509 53.7476 254.039 53.6876C251.309 53.4776 250.469 52.3775 250.309 49.7875C250.212 45.9281 250.503 42.0687 251.179 38.2676C251.648 34.7213 251.55 31.1231 250.889 27.6075C250.52 25.8322 249.477 24.2691 247.979 23.2476C245.849 21.6676 244.909 19.2976 243.599 17.1776C243.479 16.7895 243.428 16.3833 243.449 15.9775Z" fill="#0FDC82"/>
<path d="M236.389 78.3075C236.389 79.7375 236.389 80.9475 236.239 82.1375C236.207 82.8331 236.03 83.5143 235.719 84.1375C235.142 85.2973 234.217 86.2481 233.073 86.8575C231.93 87.467 230.624 87.7046 229.339 87.5375C226.798 87.2492 224.277 86.8051 221.789 86.2075C220.13 85.7561 218.375 85.7978 216.739 86.3275C215.833 86.6134 214.903 86.8143 213.959 86.9275C212.589 87.1075 211.959 86.2175 212.459 84.9275C213.159 82.9975 214.809 81.9275 216.169 80.5575C217.195 79.5349 218.104 78.4013 218.879 77.1775C220.379 74.7975 221.619 72.2575 223.189 69.9375C224.1 68.7174 225.193 67.6448 226.429 66.7575C227.789 65.6875 229.429 66.0775 230.969 66.3575C231.909 66.5275 232.819 66.7975 233.749 67.0075C234.46 67.2044 235.208 67.2281 235.93 67.0767C236.652 66.9254 237.327 66.6033 237.899 66.1375C239.389 64.8675 241.089 64.8275 242.829 64.7075C243.179 64.7075 243.529 64.7075 243.889 64.7075C243.889 64.8275 243.889 64.8875 243.889 64.8975C241.439 65.5875 239.889 67.3975 238.359 69.2875C238.043 69.6461 237.646 69.924 237.201 70.0979C236.755 70.2718 236.275 70.3368 235.799 70.2875C234.449 70.2875 233.099 70.2175 231.799 70.2075C230.618 70.241 229.477 70.6453 228.539 71.3632C227.6 72.0811 226.911 73.0763 226.569 74.2075C226.239 75.4075 226.569 75.8375 227.739 75.7375C229.329 75.5975 230.909 75.3375 232.499 75.1175L236.869 74.5075C236.649 74.7375 236.589 74.8475 236.499 74.8875C234.719 75.7775 232.969 76.7475 231.129 77.5075C229.918 78.0137 228.643 78.3502 227.339 78.5075C225.259 78.8392 223.365 79.9031 221.999 81.5075C221.449 82.0575 221.729 82.7775 222.499 83.0075C222.733 83.1048 222.987 83.1459 223.239 83.1275C225.239 82.6975 227.079 83.4375 228.969 83.7175C229.997 83.8729 231.047 83.7214 231.988 83.282C232.929 82.8425 233.719 82.1347 234.259 81.2475C234.907 80.2238 235.619 79.2419 236.389 78.3075Z" fill="#0FDC82"/>
<path d="M303.24 62.4375C301.987 64.3185 300.17 65.7538 298.05 66.5375C297.005 66.8692 295.93 67.0969 294.84 67.2175C293.431 67.3337 292.075 67.8094 290.902 68.599C289.729 69.3886 288.778 70.4657 288.14 71.7275C287.975 72.1808 287.858 72.65 287.79 73.1275C288.068 73.1432 288.347 73.123 288.62 73.0675C290.136 72.3764 291.863 72.3082 293.43 72.8775C294.176 73.0975 294.968 73.1115 295.721 72.9178C296.475 72.7241 297.162 72.3301 297.71 71.7775C297.795 72.0187 297.828 72.2753 297.807 72.5303C297.786 72.7854 297.711 73.0331 297.588 73.257C297.464 73.481 297.294 73.6762 297.089 73.8297C296.884 73.9831 296.649 74.0915 296.4 74.1475C295.213 74.493 293.993 74.7109 292.76 74.7975C291.753 74.8032 290.76 75.0396 289.859 75.4886C288.958 75.9376 288.171 76.5872 287.56 77.3875C287.11 77.9975 286.27 78.3075 285.67 78.8275C285.07 79.3475 284.13 79.7575 284.61 80.5875C284.84 80.9675 285.89 80.9775 286.61 80.9675C288.21 80.9675 289.81 80.7875 291.41 80.7675C292.465 80.8213 293.52 80.6484 294.504 80.2603C295.487 79.8721 296.375 79.2779 297.11 78.5175C297.754 77.88 298.56 77.4297 299.441 77.2148C300.321 76.9999 301.244 77.0285 302.11 77.2975L300.47 78.2975C299.321 78.9428 298.388 79.9135 297.79 81.0875C297.224 82.0152 296.455 82.8017 295.54 83.3875C293.09 85.1475 290.22 85.1475 287.35 85.1775C285.72 85.1775 284.11 85.5375 282.49 85.6875C281.5 85.8645 280.489 85.8948 279.49 85.7775C277.69 85.3975 277.06 84.0775 277.77 82.3775C278.214 81.5012 278.712 80.653 279.26 79.8375C280.69 77.3375 282.12 74.8375 283.51 72.3275C283.804 71.7807 283.994 71.1839 284.07 70.5675C284.28 68.6296 285.216 66.843 286.69 65.5675C287.378 64.9298 288.183 64.4306 289.06 64.0975C291.506 63.1922 294.146 62.9406 296.72 63.3675C298.937 63.6569 301.192 63.3354 303.24 62.4375Z" fill="#0FDC82"/>
<path d="M174.71 73.1474C174.76 76.5774 172.71 79.1474 170.32 81.4574C168.81 82.9774 167.2 84.4574 165.63 85.8674C163.76 87.5874 161.46 87.5174 159.23 87.1174C158.797 86.9523 158.404 86.6976 158.077 86.3702C157.749 86.0428 157.495 85.65 157.33 85.2174C156.249 82.9594 155.994 80.3939 156.61 77.9674C157.209 76.0542 157.68 74.1032 158.02 72.1274C158.92 66.4374 164.54 64.3374 169.02 65.4874C170.761 65.8079 172.316 66.7763 173.372 68.1977C174.428 69.619 174.906 71.3878 174.71 73.1474ZM160.4 78.3074C160.71 78.8774 160.91 79.7074 161.4 79.9274C161.715 80.0309 162.05 80.0568 162.378 80.0029C162.705 79.9489 163.014 79.8166 163.28 79.6174C165.13 77.7074 166.88 75.6974 168.57 73.6174C169.034 72.9617 169.373 72.2261 169.57 71.4474C169.683 71.1741 169.731 70.8785 169.712 70.5834C169.692 70.2884 169.605 70.0017 169.457 69.7457C169.309 69.4896 169.105 69.2708 168.859 69.1064C168.613 68.942 168.333 68.8363 168.04 68.7974C167.449 68.6704 166.838 68.6716 166.248 68.801C165.658 68.9304 165.103 69.1849 164.62 69.5474C161.49 71.6074 160.91 74.8074 160.4 78.3074Z" fill="#0FDC82"/>
<path d="M156.02 72.1278C155.812 76.6045 154.163 80.8942 151.32 84.3578C149.813 86.4965 147.65 88.0866 145.16 88.8878C143.798 89.1737 142.386 89.1049 141.059 88.6881C139.731 88.2714 138.533 87.5206 137.58 86.5078C136.734 85.4641 136.248 84.1759 136.192 82.8341C136.136 81.4922 136.514 80.1681 137.27 79.0578C137.861 77.9834 138.568 76.9774 139.38 76.0578C141.21 74.1256 142.716 71.9104 143.84 69.4978C145.05 66.9378 147.54 66.1978 150.1 66.2378C151.133 66.1991 152.156 66.4502 153.054 66.9627C153.951 67.4752 154.688 68.2286 155.18 69.1378C155.575 70.0984 155.857 71.1019 156.02 72.1278ZM150.02 69.8078C149.46 70.0278 148.74 70.1078 148.37 70.5078C147.418 71.4405 146.6 72.5005 145.94 73.6578C144.94 75.5578 144.23 77.5978 143.38 79.5778C143.054 80.1022 142.782 80.6583 142.57 81.2378C142.44 81.9078 142.32 82.8478 142.68 83.2378C143.04 83.6278 143.98 83.6878 144.68 83.6378C145.261 83.5671 145.805 83.3111 146.23 82.9078C149.12 80.1478 151.61 77.1278 152.4 73.0478C152.79 71.1578 151.95 69.9878 150.06 69.8078H150.02Z" fill="#0FDC82"/>
<path d="M260.12 65.3578C258.12 67.0478 256.12 68.8878 253.97 70.3578C252.816 70.9061 251.557 71.1963 250.28 71.2078C247.14 71.6178 245.07 73.5678 243.39 75.9778C242.95 76.597 242.723 77.3421 242.743 78.1011C242.763 78.8602 243.028 79.5924 243.5 80.1878C244.011 80.7427 244.683 81.1239 245.422 81.2781C246.16 81.4323 246.929 81.3518 247.62 81.0478C249.35 80.4478 251.04 79.7478 252.79 79.2478C254.79 78.6678 255.9 79.2478 256.79 81.4478C254.88 80.3078 253.79 81.7678 252.5 82.5978C250.661 83.9037 248.729 85.0734 246.72 86.0978C245.373 86.6445 243.898 86.7937 242.47 86.5278C241.682 86.3753 240.934 86.0609 240.273 85.6045C239.613 85.1481 239.055 84.5596 238.634 83.8762C238.213 83.1929 237.938 82.4296 237.827 81.6346C237.716 80.8396 237.772 80.0303 237.99 79.2578C239.055 74.5952 241.637 70.4174 245.33 67.3778C245.973 66.9003 246.668 66.4945 247.4 66.1678C247.827 65.9489 248.307 65.851 248.786 65.8845C249.265 65.9179 249.726 66.0816 250.12 66.3578C252.65 68.0078 255.12 68.2978 257.69 66.2978C258.363 65.8192 259.064 65.3818 259.79 64.9878L260.12 65.3578Z" fill="#0FDC82"/>
<path d="M92.1494 61.6076C93.2062 61.3758 94.2743 61.1989 95.3494 61.0777C96.0553 61.092 96.7566 60.9599 97.4089 60.6897C98.0612 60.4194 98.6504 60.017 99.1394 59.5077C100.689 57.8277 103.809 58.0777 105.339 59.7677C105.839 60.3177 106.429 60.7677 107.259 61.5677C106.539 61.6847 105.807 61.7116 105.079 61.6477C104.614 61.5508 104.134 61.5561 103.671 61.6631C103.209 61.7702 102.775 61.9765 102.399 62.2677C101.653 62.791 100.864 63.2494 100.039 63.6377C99.2915 63.9896 98.4595 64.1237 97.6389 64.0246C96.8183 63.9256 96.0421 63.5974 95.3994 63.0777C94.3674 62.4813 93.2787 61.9888 92.1494 61.6076Z" fill="#0FDC82"/>
<path d="M346.239 60.2076C346.667 59.7353 347.209 59.3819 347.814 59.1821C348.418 58.9822 349.065 58.9428 349.689 59.0676C350.332 59.2532 351.012 59.2744 351.665 59.1294C352.319 58.9844 352.925 58.6778 353.429 58.2375C354.118 57.8469 354.875 57.5891 355.659 57.4775C354.819 58.6975 354.099 59.8076 353.309 60.8676C353.043 61.2467 352.663 61.5309 352.224 61.6784C351.785 61.8259 351.31 61.8292 350.869 61.6876C349.359 61.3076 347.869 60.7376 346.239 60.2076Z" fill="#0FDC82"/>
<path d="M304.159 58.9377C304.156 58.589 304.267 58.2488 304.477 57.9703C304.687 57.6917 304.983 57.4905 305.319 57.3978C306.167 57.0657 307.055 56.8438 307.959 56.7377C309.959 56.5677 311.889 56.4677 313.619 55.1577C313.646 55.8259 313.45 56.484 313.06 57.0275C312.671 57.5711 312.111 57.9688 311.469 58.1577C310.407 58.357 309.33 58.4708 308.249 58.4977C306.909 58.6177 305.579 58.7777 304.159 58.9377Z" fill="#0FDC82"/>
<path d="M163.509 17.6178C161.749 17.6178 160.059 17.6178 158.369 17.6178C157.664 17.6415 156.965 17.4782 156.343 17.1445C155.722 16.8108 155.199 16.3186 154.829 15.7178C156.579 15.8078 158.329 15.8678 160.069 16.0178C161.449 16.1378 162.789 16.4078 163.509 17.6178Z" fill="#0FDC82"/>
<path d="M292.819 17.8474L298.469 15.6274C297.239 18.4974 295.639 19.0374 292.819 17.8474Z" fill="#0FDC82"/>
<path d="M264.679 61.6578L260.629 63.7378C260.789 61.6678 262.669 60.6578 264.679 61.6578Z" fill="#0FDC82"/>
<path d="M52.6291 72.9874C50.5741 72.5947 48.7504 71.4231 47.5391 69.7173C47.8334 69.8634 48.154 69.9492 48.482 69.9698C48.8099 69.9905 49.1387 69.9455 49.4491 69.8374C49.9947 69.6627 50.4663 69.3108 50.7891 68.8374C50.8015 69.6172 50.9708 70.3866 51.287 71.0995C51.6031 71.8125 52.0595 72.4545 52.6291 72.9874Z" fill="#A5F9CF"/>
<path d="M64.8691 90.6374C64.9891 90.2074 65.1091 89.7674 65.2391 89.3274C65.3091 89.1074 65.4091 88.9074 65.4891 88.6874C65.5463 88.5513 65.5758 88.4051 65.5758 88.2574C65.5758 88.1098 65.5463 87.9636 65.4891 87.8274C65.4447 87.7284 65.4218 87.621 65.4218 87.5124C65.4218 87.4039 65.4447 87.2965 65.4891 87.1974C65.5175 87.113 65.566 87.0368 65.6303 86.9753C65.6947 86.9137 65.773 86.8687 65.8586 86.8442C65.9441 86.8196 66.0344 86.8161 66.1216 86.8341C66.2088 86.8521 66.2903 86.891 66.3591 86.9474C66.5025 87.0376 66.6219 87.161 66.7073 87.3073C66.7926 87.4536 66.8413 87.6182 66.8491 87.7874C66.8544 88.0701 66.8242 88.3523 66.7591 88.6274C66.6395 88.9706 66.6395 89.3442 66.7591 89.6874C66.8591 89.9574 66.9691 90.2074 67.0591 90.4774C67.1356 90.6781 67.1925 90.8858 67.2291 91.0974C67.2617 91.3682 67.1943 91.6415 67.0396 91.8661C66.885 92.0907 66.6537 92.2512 66.3891 92.3174C66.1449 92.406 65.8757 92.396 65.6387 92.2897C65.4016 92.1833 65.2153 91.9888 65.1191 91.7474C64.9658 91.3968 64.8809 91.02 64.8691 90.6374Z" fill="#A5F9CF"/>
<path d="M14.5889 90.1674C14.6562 89.9356 14.7467 89.7111 14.8589 89.4974C15.0762 89.1986 15.2294 88.8582 15.3089 88.4974C15.3548 88.3434 15.4371 88.2028 15.5489 88.0874C15.6123 88.0061 15.7034 87.951 15.8048 87.9326C15.9062 87.9141 16.0109 87.9336 16.0989 87.9874C16.1933 88.0272 16.2704 88.0995 16.3162 88.1912C16.362 88.2829 16.3736 88.3879 16.3489 88.4874C16.3534 88.5506 16.3534 88.6141 16.3489 88.6774C16.2389 88.9673 16.1978 89.2789 16.2289 89.5874C16.2576 89.7745 16.2466 89.9656 16.1966 90.1482C16.1467 90.3308 16.0588 90.5009 15.9389 90.6474C15.6689 90.9574 15.4189 91.0574 15.1289 90.9474C14.9699 90.8881 14.833 90.7816 14.7364 90.6421C14.6399 90.5027 14.5884 90.337 14.5889 90.1674Z" fill="#A5F9CF"/>
<path d="M52.8895 51.9476C52.7469 51.8608 52.5918 51.7967 52.4295 51.7576C51.8299 51.6919 51.228 51.8602 50.7495 52.2276L50.4995 52.4276C49.8629 53.0021 49.3257 53.6778 48.9095 54.4276C48.2639 55.5187 47.7439 56.6794 47.3595 57.8876C46.3145 60.7358 46.0419 63.8099 46.5695 66.7976C46.6701 67.3852 46.9216 67.9365 47.2995 68.3976C47.53 68.712 47.8649 68.9339 48.2443 69.0237C48.6236 69.1135 49.0225 69.0653 49.3695 68.8876C49.7106 68.7235 50.0244 68.5076 50.2995 68.2476C50.6642 67.8927 50.9987 67.508 51.2995 67.0976C52.0456 66.0536 52.6321 64.9044 53.0395 63.6876C53.8301 61.5513 54.279 59.3037 54.3695 57.0276C54.4302 55.9899 54.3392 54.949 54.0995 53.9376C53.9672 53.1433 53.5338 52.4306 52.8895 51.9476ZM51.9595 61.7576C51.6957 62.8463 51.2817 63.893 50.7295 64.8676C50.486 65.3177 50.1682 65.7234 49.7895 66.0676C49.658 66.2443 49.4794 66.3803 49.274 66.4599C49.0687 66.5396 48.8451 66.5597 48.6288 66.5179C48.4126 66.4761 48.2125 66.3742 48.0517 66.2237C47.8908 66.0733 47.7757 65.8805 47.7195 65.6676C47.441 65.0365 47.2882 64.3571 47.2695 63.6676V62.9776C47.2937 60.6538 47.8659 58.3686 48.9395 56.3076C49.1335 55.9532 49.3612 55.6183 49.6195 55.3076C49.8098 55.0801 50.0321 54.8813 50.2795 54.7176C50.4008 54.6235 50.5411 54.5569 50.6906 54.5224C50.8402 54.4879 50.9955 54.4863 51.1457 54.5177C51.296 54.549 51.4376 54.6127 51.5608 54.7042C51.6841 54.7957 51.786 54.9128 51.8595 55.0476C52.1676 55.5397 52.3528 56.0988 52.3995 56.6776C52.5791 58.3835 52.4297 60.108 51.9595 61.7576Z" fill="white"/>
<path d="M35.3193 52.8876L35.4693 52.5576L35.3193 52.8876Z" fill="white"/>
<path d="M41.8691 63.8576C42.5329 62.4027 43.0262 60.8759 43.3391 59.3076C43.1175 60.2892 42.8404 61.2574 42.5091 62.2076C42.3091 62.7976 42.0991 63.3076 41.8691 63.8576Z" fill="white"/>
<path d="M35.999 51.5278C36.089 51.3478 36.199 51.1778 36.299 51.0078C36.1894 51.1754 36.0893 51.349 35.999 51.5278Z" fill="white"/>
<path d="M43.4996 58.5273C43.4996 58.5973 43.4996 58.6674 43.4996 58.7374C43.4996 58.8074 43.4896 58.5973 43.4996 58.5273Z" fill="white"/>
<path d="M35.5195 52.4575C35.6495 52.1875 35.7895 51.9175 35.9295 51.6475C35.7795 51.9175 35.6495 52.1875 35.5195 52.4575Z" fill="white"/>
<path d="M35.9297 77.1176C36.1089 77.1413 36.2911 77.1258 36.4637 77.0723C36.6363 77.0188 36.7953 76.9285 36.9297 76.8076C36.7122 76.9616 36.4626 77.0642 36.1997 77.1076L35.9297 77.1176Z" fill="white"/>
<path d="M39.0095 73.1477C39.3895 73.0177 40.0095 72.8277 39.4295 71.0877C38.9995 69.6877 38.8195 67.9577 39.6195 67.2577C40.558 66.261 41.3189 65.1111 41.8695 63.8577C42.0995 63.3277 42.3095 62.7977 42.5095 62.2477C42.8408 61.2975 43.1179 60.3293 43.3395 59.3477L43.4595 58.7377C43.4595 58.6677 43.4595 58.5977 43.4595 58.5277C43.6137 57.6272 43.7206 56.7194 43.7795 55.8077C44.0595 51.7277 43.2095 49.6677 42.4395 48.6577C42.0823 48.1926 41.5712 47.8699 40.9977 47.7471C40.4243 47.6244 39.8258 47.7096 39.3095 47.9877C38.0544 48.695 37.0169 49.7326 36.3095 50.9877C36.2095 51.1577 36.0995 51.3277 36.0095 51.5077C35.9825 51.5455 35.9591 51.5856 35.9395 51.6277C35.7995 51.8977 35.6595 52.1677 35.5295 52.4377V52.5377L35.3795 52.8677C34.5771 54.7413 34.0062 56.7058 33.6795 58.7177C32.3295 66.1277 35.0295 68.5377 35.0595 68.5677C35.5224 68.8926 35.8721 69.3542 36.0595 69.8877C36.1315 70.476 36.0234 71.0722 35.7495 71.5977C35.4495 72.4677 34.8395 74.9877 35.7495 75.7477C35.9395 75.9077 36.0495 75.8977 36.0995 75.8877C36.2554 75.8772 36.4045 75.82 36.5275 75.7237C36.6505 75.6275 36.7418 75.4964 36.7895 75.3477C37.0616 74.4681 37.1333 73.5387 36.9995 72.6277C36.977 72.4782 37.0089 72.3256 37.0895 72.1977C37.1378 71.7617 37.256 71.3362 37.4395 70.9377C37.482 70.7951 37.567 70.6689 37.6831 70.576C37.7993 70.483 37.9411 70.4278 38.0895 70.4177C38.1395 70.6015 38.1762 70.7887 38.1995 70.9777C38.1995 71.3077 38.1995 71.6477 38.1995 71.9777C38.2096 72.1719 38.2296 72.3655 38.2595 72.5577C38.3095 72.8777 38.5995 73.3077 39.0095 73.1477ZM37.2395 65.6477C37.0974 65.7765 36.9267 65.8695 36.7416 65.9193C36.5564 65.9692 36.3621 65.9742 36.1746 65.9342C35.9871 65.8941 35.8117 65.8101 35.6631 65.689C35.5144 65.5679 35.3967 65.4132 35.3195 65.2377C34.9909 64.6632 34.7865 64.0262 34.7195 63.3677C34.6595 62.9077 34.6495 62.4277 34.6295 62.1077C34.6572 59.6548 35.1811 57.2328 36.1695 54.9877C36.4642 54.3065 36.8585 53.6729 37.3395 53.1077C37.5229 52.8944 37.7272 52.7001 37.9495 52.5277C38.0961 52.3911 38.2733 52.2919 38.4663 52.2381C38.6593 52.1844 38.8624 52.1779 39.0584 52.219C39.2545 52.2602 39.4378 52.3479 39.5928 52.4747C39.7479 52.6015 39.8702 52.7638 39.9495 52.9477C40.2 53.3944 40.3693 53.8819 40.4495 54.3877C40.6293 55.479 40.6496 56.5906 40.5095 57.6877C40.3406 59.3659 39.9366 61.012 39.3095 62.5777C39.0244 63.3334 38.6375 64.0466 38.1595 64.6977C37.8969 65.0543 37.5875 65.3738 37.2395 65.6477Z" fill="white"/>
<path d="M35.9297 51.6474C35.9493 51.6053 35.9727 51.5651 35.9997 51.5273C35.9727 51.5651 35.9493 51.6053 35.9297 51.6474Z" fill="white"/>
<path d="M43.4589 58.7378L43.3389 59.3478L43.4589 58.7378Z" fill="white"/>
<path d="M52.7996 50.4475C53.156 50.5588 53.4933 50.724 53.7996 50.9375L53.6696 50.7975C53.4604 50.5958 53.2098 50.4422 52.9353 50.3472C52.6607 50.2522 52.3687 50.2182 52.0796 50.2475C51.5553 50.2811 51.0472 50.4424 50.5996 50.7175C50.9275 50.5223 51.2924 50.3975 51.6712 50.351C52.05 50.3045 52.4342 50.3374 52.7996 50.4475Z" fill="white"/>
<path d="M80.2393 15.7874C79.7893 15.3174 79.3693 14.7874 78.8793 14.4074C77.4561 13.2256 75.8479 12.2863 74.1193 11.6274C70.2891 10.1478 66.225 9.3655 62.1193 9.31741C60.1655 9.27027 58.2114 9.39407 56.2793 9.68741C54.2435 9.96572 52.2531 10.5104 50.3593 11.3074C50.2015 11.3789 50.0374 11.4358 49.8693 11.4774C49.7328 11.4874 49.5958 11.4874 49.4593 11.4774C49.4922 11.2814 49.5674 11.0949 49.6797 10.9308C49.7919 10.7668 49.9385 10.6291 50.1093 10.5274C50.4227 10.2873 50.7574 10.0764 51.1093 9.89743C52.6393 9.14743 54.1093 8.39741 55.6993 7.68741C58.872 6.23379 62.1862 5.11122 65.5893 4.33743C66.8253 4.00422 68.086 3.77013 69.3593 3.63742C69.4309 3.61515 69.501 3.58842 69.5693 3.5574C69.5693 3.2674 69.3593 3.19743 69.1293 3.14743C67.2605 2.67801 65.3455 2.4164 63.4193 2.3674C61.7497 2.31732 60.0787 2.38752 58.4193 2.57742C55.7632 2.85584 53.1449 3.41907 50.6093 4.25742C47.4639 5.20056 44.5302 6.74208 41.9693 8.79739C41.8753 8.85593 41.7745 8.90295 41.6693 8.93741C41.5393 8.67741 41.6693 8.52741 41.7693 8.37741C42.6537 6.8623 43.7255 5.46459 44.9593 4.21738C46.3969 2.67762 48.0468 1.35091 49.8593 0.277375C49.9293 0.277375 49.9593 0.157434 50.0093 0.0874338V0.00741667C49.8561 -0.00247222 49.7024 -0.00247222 49.5493 0.00741667C48.2775 0.278089 47.0469 0.715173 45.8893 1.3074C43.0108 2.73712 40.386 4.62883 38.1193 6.90738C36.6356 8.32567 35.3897 9.97339 34.4293 11.7874C34.3358 11.9655 34.2023 12.1196 34.0393 12.2374C33.7693 12.4674 33.5593 12.4274 33.3793 12.1074C32.6838 10.8865 31.7644 9.80769 30.6693 8.9274C29.3714 7.78204 27.8682 6.89303 26.2393 6.3074C25.9093 6.1974 25.5593 6.1374 25.2393 6.0574C25.1592 6.02862 25.0714 6.03002 24.9922 6.06131C24.9131 6.0926 24.848 6.15162 24.8093 6.22739L25.0293 6.37741C25.4431 6.62995 25.8436 6.90365 26.2293 7.19742C27.3175 8.15 28.2459 9.2709 28.9793 10.5174C29.487 11.294 29.8809 12.1392 30.1493 13.0274C30.2409 13.3789 30.3077 13.7365 30.3493 14.0974C30.373 14.1973 30.3634 14.3022 30.3218 14.3961C30.2803 14.4901 30.2092 14.5677 30.1193 14.6174C29.4993 14.1274 28.9193 13.6174 28.3193 13.1974C27.0906 12.2355 25.6051 11.658 24.0493 11.5374C23.5647 11.4788 23.0731 11.5243 22.6075 11.6709C22.1419 11.8175 21.7129 12.0618 21.3493 12.3874C21.3156 12.4229 21.2908 12.4659 21.2769 12.5128C21.2629 12.5597 21.2603 12.6093 21.2693 12.6574C21.3434 12.7458 21.4459 12.8059 21.5593 12.8274C21.6393 12.8274 21.7393 12.8274 21.8293 12.8274C21.9881 12.8009 22.1484 12.7841 22.3093 12.7774C22.7493 12.7774 22.8893 13.0074 22.7993 13.4174C22.7993 13.5374 22.7293 13.6474 22.6993 13.7674C22.5527 14.2276 22.4292 14.6948 22.3293 15.1674C22.3011 15.4202 22.3284 15.6762 22.4093 15.9174C22.4286 16.0115 22.4764 16.0975 22.5462 16.1637C22.6159 16.2298 22.7042 16.273 22.7993 16.2874C22.8943 16.2943 22.989 16.271 23.0699 16.2207C23.1507 16.1704 23.2136 16.0957 23.2493 16.0074C23.3491 15.8171 23.4263 15.6157 23.4793 15.4074C23.5644 15.0085 23.5644 14.5963 23.4793 14.1974C23.4066 13.8347 23.4784 13.458 23.6793 13.1474C24.4415 13.3763 25.0973 13.869 25.5293 14.5374C26.605 16.3033 27.322 18.2641 27.6393 20.3074C27.8643 21.5271 27.8643 22.7777 27.6393 23.9974C27.5723 24.6739 27.3041 25.3149 26.8693 25.8374C27.8449 26.0292 28.7947 26.3346 29.6993 26.7474C29.2593 26.8074 28.4193 26.8274 27.9893 26.8674C27.1593 26.9574 26.3193 27.0174 25.4993 27.1674C23.8273 27.4582 22.189 27.9172 20.6093 28.5374C14.7514 30.8402 9.61693 34.6694 5.73928 39.6274C3.93406 41.9169 2.48443 44.4656 1.43928 47.1874C0.638395 49.2644 0.169326 51.4545 0.0492786 53.6774C-0.110778 55.7519 0.119881 57.838 0.729279 59.8274C0.861524 60.2058 0.965147 60.5935 1.03928 60.9874C1.12525 61.6324 1.08448 62.288 0.919278 62.9174C0.659278 64.0274 0.409279 65.1474 0.139279 66.2574C0.00576052 66.8518 0.0835519 67.4742 0.359276 68.0174C0.477136 68.2059 0.640671 68.3615 0.834713 68.4699C1.02876 68.5783 1.24702 68.6359 1.46928 68.6374C1.80928 68.6374 2.06928 68.2874 2.16928 67.7974V67.6374C2.16928 67.1274 2.16928 66.6374 2.22928 66.1074C2.22928 65.4374 2.22928 64.7674 2.30928 64.1074C2.30928 64.0174 2.41928 63.9274 2.47928 63.8274C2.55928 63.8874 2.66928 63.9274 2.71928 63.9974C2.98168 64.3932 3.15878 64.8394 3.23928 65.3074C3.28324 65.6484 3.3637 65.9836 3.47928 66.3074C3.66928 66.7474 3.91928 66.8274 4.35928 66.6274C4.47574 66.5756 4.6018 66.5488 4.72928 66.5488C4.85676 66.5488 4.98281 66.5756 5.09928 66.6274C5.46928 66.7874 5.77928 66.6874 6.15928 66.8674C8.09207 65.5024 10.3324 64.6366 12.6808 64.347C15.0292 64.0573 17.4128 64.353 19.6193 65.2074C20.96 65.8161 22.2565 66.5178 23.4993 67.3074C25.2667 68.4969 27.2012 69.4169 29.2393 70.0374C28.3183 67.9682 27.8316 65.7321 27.8093 63.4674C27.7176 59.9607 28.2806 56.4677 29.4693 53.1674C32.9693 42.6274 39.4693 42.6074 40.1593 42.6374C40.8493 42.6674 45.3393 42.0174 47.7393 48.8374C49.0493 47.7474 50.5793 46.3074 53.0793 46.8374C53.552 46.9824 53.9891 47.2245 54.3628 47.5482C54.7365 47.872 55.0384 48.2702 55.2493 48.7174C54.9671 47.1995 54.5003 45.7219 53.8593 44.3174C51.6847 39.305 48.3944 34.8553 44.2393 31.3074C42.9149 30.0588 41.4322 28.9897 39.8293 28.1274C39.2423 27.8745 38.633 27.6769 38.0093 27.5374C39.1024 27.3841 40.2089 27.3506 41.3093 27.4374C41.3093 27.2074 41.3793 26.9874 41.4293 26.7674C41.696 25.7049 42.1316 24.692 42.7193 23.7674C43.6857 22.2003 44.871 20.7792 46.2393 19.5474C47.2006 18.6402 48.2645 17.8482 49.4093 17.1874C49.6412 17.0535 49.8952 16.962 50.1593 16.9174C50.5493 16.8674 50.6593 16.9874 50.6193 17.3674C50.5828 17.6478 50.526 17.9252 50.4493 18.1974C50.2793 18.9374 50.0793 19.6574 49.9093 20.3974C49.8119 20.8775 49.8862 21.3765 50.1193 21.8074C50.1978 22.0051 50.3325 22.1754 50.5067 22.2975C50.6809 22.4196 50.887 22.488 51.0996 22.4944C51.3122 22.5008 51.522 22.4448 51.7032 22.3334C51.8844 22.222 52.029 22.06 52.1193 21.8674C52.2885 21.62 52.388 21.3316 52.4073 21.0325C52.4267 20.7334 52.3652 20.4345 52.2293 20.1674C51.9875 19.6271 51.8713 19.0391 51.8893 18.4474C51.8798 17.9726 52.0207 17.507 52.292 17.1172C52.5632 16.7274 52.9508 16.4335 53.3993 16.2774C53.6569 16.1501 53.9534 16.1258 54.2283 16.2094C54.5033 16.293 54.7361 16.4783 54.8793 16.7274C55.0629 16.9717 55.1806 17.2593 55.2209 17.5623C55.2611 17.8653 55.2227 18.1736 55.1093 18.4574C54.4498 20.1968 54.0684 22.0293 53.9793 23.8874C53.923 24.8958 54.0174 25.9069 54.2593 26.8874C54.3813 27.4418 54.639 27.9572 55.0093 28.3874C55.1616 28.5777 55.3528 28.7333 55.5701 28.8437C55.7874 28.954 56.0258 29.0167 56.2693 29.0274C56.3704 29.0577 56.4782 29.0577 56.5793 29.0274C56.9586 28.8514 57.2557 28.5364 57.4093 28.1474C57.6935 27.3458 57.8224 26.4973 57.7893 25.6474C57.7632 24.4617 57.5953 23.2833 57.2893 22.1374C57.0693 21.3274 56.9393 20.4974 56.7293 19.6974C56.646 18.8924 56.7519 18.0791 57.0383 17.3222C57.3248 16.5653 57.7839 15.8856 58.3793 15.3374C58.6898 15.1207 59.0256 14.9427 59.3793 14.8074C59.6993 14.6774 59.8493 14.7574 60.0293 15.0374C60.2093 15.3174 60.1993 15.3774 60.2993 15.5374C60.3379 15.6406 60.4021 15.7323 60.4859 15.8039C60.5697 15.8755 60.6703 15.9246 60.7783 15.9466C60.8863 15.9686 60.9981 15.9628 61.1033 15.9297C61.2084 15.8966 61.3034 15.8373 61.3793 15.7574C61.5746 15.5954 61.7462 15.407 61.8893 15.1974C62.0396 14.9721 62.2412 14.7857 62.4777 14.6535C62.7141 14.5214 62.9786 14.4473 63.2493 14.4374C63.3425 14.4429 63.436 14.4429 63.5293 14.4374C63.7602 14.3772 64.0051 14.4015 64.2197 14.506C64.4343 14.6105 64.6044 14.7884 64.6993 15.0074C64.8888 15.4 65.2014 15.72 65.5895 15.9185C65.9776 16.1171 66.42 16.1834 66.8493 16.1074C67.6011 16.0138 68.3354 15.8117 69.0293 15.5074C70.3475 15.0265 71.7473 14.809 73.1493 14.8674C73.353 14.8797 73.5545 14.9167 73.7493 14.9774C74.0493 15.0674 74.1093 15.1874 73.9993 15.4874C73.8893 15.7874 73.8293 15.9074 73.7393 16.1174C73.2907 17.023 72.8966 17.9547 72.5593 18.9074C72.3869 19.3406 72.3259 19.8102 72.3818 20.2732C72.4377 20.7361 72.6087 21.1776 72.8793 21.5574C73.0989 21.8667 73.4001 22.1091 73.7493 22.2574C73.966 22.3558 74.2047 22.3955 74.4416 22.3727C74.6785 22.3499 74.9053 22.2653 75.0993 22.1274C75.3329 21.9763 75.5338 21.7798 75.6901 21.5497C75.8464 21.3195 75.9549 21.0602 76.0093 20.7874C76.0696 20.4568 76.1096 20.1228 76.1293 19.7874C76.1373 19.1532 76.0599 18.5209 75.8993 17.9074C75.8111 17.4902 75.7774 17.0633 75.7993 16.6374C75.7949 16.5097 75.8187 16.3825 75.869 16.265C75.9193 16.1476 75.9949 16.0426 76.0904 15.9577C76.1858 15.8727 76.2988 15.8098 76.4214 15.7735C76.5439 15.7371 76.6729 15.7282 76.7993 15.7474C77.6604 15.7538 78.5185 15.851 79.3593 16.0374L80.4593 16.2974C80.491 16.2002 80.4861 16.0947 80.4456 16.0008C80.4051 15.9069 80.3317 15.831 80.2393 15.7874ZM16.8393 45.0274C16.6526 45.1192 16.4473 45.1669 16.2393 45.1669C16.0312 45.1669 15.826 45.1192 15.6393 45.0274C15.4218 44.9777 15.2186 44.879 15.0452 44.7386C14.8719 44.5981 14.733 44.4198 14.6393 44.2174C14.2593 43.3774 14.6393 42.0674 15.0893 40.9474C12.8293 42.8174 12.3393 46.3474 12.3393 46.3874C11.8093 49.9374 10.7893 52.0274 9.33928 52.6174C9.0629 52.7295 8.76751 52.7872 8.46928 52.7874C7.89175 52.7747 7.33252 52.5825 6.86928 52.2374C5.62928 51.3574 4.45928 49.4874 6.07928 45.7274C6.93059 43.7993 8.17357 42.0694 9.72928 40.6474C12.7293 37.8374 14.9093 35.9074 14.9093 35.9074C13.8275 38.0388 12.3514 39.9458 10.5593 41.5274C9.12333 42.8366 7.97565 44.4305 7.18928 46.2074C6.18928 48.6374 6.28928 50.3374 7.59928 51.2774C7.78442 51.4156 8.00031 51.507 8.22845 51.5435C8.45659 51.5801 8.6902 51.5608 8.90928 51.4874C9.49928 51.2474 10.5893 50.2474 11.1793 46.2174C11.1793 46.0574 11.7393 42.0374 14.5193 39.8874C15.3993 38.9974 16.0893 38.5474 16.5193 38.5874C16.6322 38.5912 16.7428 38.6201 16.8431 38.672C16.9435 38.7239 17.031 38.7975 17.0993 38.8874C17.1681 38.9875 17.2049 39.106 17.2049 39.2274C17.2049 39.3488 17.1681 39.4674 17.0993 39.5674C16.3393 40.8274 15.3793 43.0074 15.6993 43.7074C15.7728 43.8201 15.8878 43.8991 16.0193 43.9274C16.1605 43.9625 16.3081 43.9625 16.4493 43.9274C16.8093 43.7474 17.7593 42.9274 18.6693 39.2774C18.6693 39.2374 19.2393 43.7074 16.8393 45.0274ZM38.0593 33.1774C38.1086 33.0844 38.1783 33.0038 38.2631 32.9414C38.348 32.8791 38.4458 32.8367 38.5493 32.8174C38.7093 32.8174 39.1693 32.6774 40.4193 33.5874C42.0907 34.6748 43.3289 36.3128 43.9193 38.2174C44.9193 41.3674 45.9193 41.8974 46.2993 41.9774C46.4545 42.0016 46.6133 41.9888 46.7627 41.9402C46.9122 41.8915 47.048 41.8084 47.1593 41.6974C48.0393 40.8174 47.8893 39.4874 46.7393 37.6974C45.8821 36.3937 44.7656 35.2806 43.4593 34.4274C41.8763 33.461 40.5136 32.1733 39.4593 30.6474C41.0805 31.4749 42.6501 32.3999 44.1593 33.4174C45.6008 34.3638 46.8328 35.5959 47.7793 37.0374C49.6593 39.9274 48.9693 41.6174 48.0593 42.5274C47.648 42.9477 47.0873 43.1885 46.4993 43.1974C46.3563 43.2118 46.2123 43.2118 46.0693 43.1974C44.7593 42.9074 43.6793 41.4074 42.7893 38.6074C42.3414 37.2252 41.5255 35.991 40.4293 35.0374C40.845 35.6686 41.0222 36.4273 40.9293 37.1774C40.8756 37.3706 40.7769 37.5483 40.6414 37.6961C40.5058 37.8438 40.3372 37.9573 40.1493 38.0274C39.8511 38.2129 39.492 38.274 39.1493 38.1974C38.1493 38.0074 37.2893 36.9674 36.3493 35.0174C36.0093 34.3174 34.8793 31.8374 34.8793 31.8374C35.1881 31.9852 35.4798 32.1663 35.7493 32.3774C36.4733 32.9395 37.0526 33.6663 37.4393 34.4974C38.4393 36.4974 39.0793 36.9074 39.3193 36.9974C39.3742 37.0173 39.4343 37.0173 39.4893 36.9974C39.5427 36.9557 39.6039 36.9251 39.6693 36.9074C39.7042 36.896 39.7354 36.8753 39.7593 36.8474C39.8893 36.3674 39.0093 34.9074 38.1493 33.8474C38.0699 33.757 38.019 33.6452 38.003 33.526C37.987 33.4068 38.0065 33.2855 38.0593 33.1774Z" fill="#A5F9CF"/>
<path d="M76.3191 71.2477C78.1738 67.4448 78.9058 63.1918 78.4291 58.9877C78.4291 58.5277 78.2991 58.0677 78.2291 57.5977C78.0609 57.7131 77.9036 57.8436 77.7591 57.9877C76.7591 59.0577 75.8991 60.1577 74.9391 61.2077C72.6918 63.7054 70.2327 66.004 67.5891 68.0777C65.4037 69.8175 63.0083 71.2756 60.4591 72.4177C58.4296 73.3411 56.2376 73.8543 54.0091 73.9277C53.5925 74.045 53.1619 74.1055 52.7291 74.1077C52.5393 74.121 52.3489 74.121 52.1591 74.1077C47.1591 73.1677 46.1591 69.8477 45.7491 68.6577C44.3191 63.8877 46.0491 57.7177 46.1391 57.4177C46.3791 56.7377 48.1391 52.1377 50.6091 50.7577C51.0567 50.4826 51.5648 50.3213 52.0891 50.2877C52.3782 50.2583 52.6702 50.2924 52.9447 50.3873C53.2193 50.4823 53.4699 50.6361 53.6791 50.8377L53.8091 50.9777C54.6638 51.612 55.2576 52.5366 55.4791 53.5777C55.5591 53.1477 55.6591 52.4177 55.7091 51.8677C54.2591 49.1877 52.8891 48.7277 52.8691 48.7277H52.7891C51.1991 47.9977 48.3191 50.3277 47.4391 51.1977L46.6091 52.0077L46.4191 50.8677C45.1791 43.7677 40.8391 44.2277 40.6591 44.2577H40.5391C40.2991 44.2577 34.3591 43.9877 31.0391 53.9677C29.901 57.1203 29.3584 60.4569 29.4391 63.8077C29.8091 69.8077 31.3391 71.1577 31.3591 71.1777L32.7491 72.3077C32.7491 72.3077 31.8291 72.3077 31.6191 72.2077H30.9191C27.0891 71.8677 21.8491 68.0777 21.3091 67.6777C14.6791 64.1977 9.7291 66.3377 7.5291 67.7577L7.4191 67.8377C7.1791 68.0177 6.9691 68.2277 6.7291 68.3877C6.26363 68.7038 5.88022 69.1264 5.61066 69.6203C5.3411 70.1142 5.19315 70.6652 5.17909 71.2277C5.12035 72.1434 5.24617 73.0616 5.5491 73.9277C6.28815 76.0592 7.3986 78.0431 8.8291 79.7877C9.47358 80.5022 9.92454 81.3697 10.1391 82.3077C10.2291 82.7877 10.2891 83.3077 10.3391 83.7877C10.4134 85.0847 10.1334 86.3776 9.5291 87.5277C9.42847 87.7327 9.34808 87.947 9.28909 88.1677C9.12432 88.9187 9.12432 89.6966 9.28909 90.4477C9.36111 91.0283 9.59698 91.5763 9.96909 92.0277C10.0618 92.1557 10.1836 92.26 10.3244 92.3319C10.4652 92.4038 10.621 92.4412 10.7791 92.4412C10.9372 92.4412 11.093 92.4038 11.2338 92.3319C11.3746 92.26 11.4964 92.1557 11.5891 92.0277C11.8309 91.7563 12.0238 91.445 12.1591 91.1077C12.5986 90.0244 12.6446 88.8214 12.2891 87.7077C12.0485 87.0332 11.9201 86.3237 11.9091 85.6077C11.8771 85.0706 11.9414 84.5321 12.0991 84.0177C12.1841 83.8087 12.3438 83.6388 12.547 83.5408C12.7503 83.4429 12.9827 83.4239 13.1991 83.4877C13.3802 83.5391 13.5388 83.6499 13.6494 83.8022C13.76 83.9545 13.8162 84.1396 13.8091 84.3277C13.8091 84.5577 13.8091 84.7877 13.8091 85.0077C13.8248 85.1439 13.8779 85.273 13.9627 85.3807C14.0474 85.4884 14.1604 85.5704 14.2891 85.6177C14.4746 85.7133 14.6804 85.7632 14.8891 85.7632C15.0978 85.7632 15.3035 85.7133 15.4891 85.6177C15.8551 85.4784 16.2539 85.4497 16.6361 85.535C17.0183 85.6203 17.3671 85.816 17.6391 86.0977C17.816 86.3012 18.0137 86.4855 18.2291 86.6477C18.4807 86.8853 18.8015 87.0366 19.1449 87.0798C19.4883 87.1229 19.8365 87.0557 20.1391 86.8877C20.2468 86.8362 20.3647 86.8095 20.4841 86.8095C20.6035 86.8095 20.7214 86.8362 20.8291 86.8877C23.2501 87.6452 25.7281 88.207 28.2391 88.5677C29.7891 88.7977 31.3491 89.0477 32.9091 89.2577C33.9791 89.3977 35.0491 89.5277 36.1191 89.5877C30.7857 88.0481 25.7249 85.6864 21.1191 82.5877L20.7491 82.4977C19.7491 82.3077 18.8291 82.2277 17.8691 82.0877C17.2091 81.9877 16.5491 81.8377 15.8691 81.7677C15.2088 81.6973 14.5602 81.5427 13.9391 81.3077C13.3803 81.0889 12.8779 80.7471 12.4691 80.3077C12.1329 79.9818 11.8933 79.5693 11.7768 79.1157C11.6604 78.6622 11.6715 78.1853 11.8091 77.7377C11.9824 77.1443 12.186 76.5602 12.4191 75.9877C12.5891 75.5077 12.7991 75.0377 12.9791 74.5577V74.4377C12.3907 73.5187 11.9013 72.5399 11.5191 71.5177C11.367 71.6469 11.2442 71.8071 11.1591 71.9877C11.0824 72.1743 11.0533 72.3771 11.0742 72.5778C11.0952 72.7785 11.1655 72.9709 11.2791 73.1377C11.005 73.0838 10.7571 72.939 10.5756 72.7266C10.3941 72.5143 10.2896 72.2468 10.2791 71.9677C10.3014 71.4813 10.4769 71.0144 10.7804 70.6337C11.0839 70.253 11.4999 69.9778 11.9691 69.8477C12.6775 69.5426 13.4656 69.4752 14.2155 69.6555C14.9654 69.8357 15.6368 70.254 16.1291 70.8477C16.2772 71.1086 16.3402 71.4093 16.3091 71.7077C15.8962 71.3631 15.4167 71.107 14.9006 70.9556C14.3845 70.8042 13.8428 70.7607 13.3091 70.8277C13.9991 72.6877 18.9891 83.7677 41.7291 89.1077C42.5891 89.2077 43.4591 89.3177 44.3291 89.3577C45.6636 89.4131 47.0003 89.373 48.3291 89.2377C50.4751 89.0299 52.5933 88.5975 54.6491 87.9477C56.9412 87.1579 59.1908 86.25 61.3891 85.2277L61.8291 85.0377C61.8905 85.2435 61.934 85.4543 61.9591 85.6677C61.9591 86.0877 61.9591 86.5077 61.9591 86.9177C61.9412 87.2508 61.9412 87.5846 61.9591 87.9177C61.9901 88.1542 62.0683 88.382 62.1891 88.5877C62.2585 88.6984 62.3593 88.786 62.4785 88.8394C62.5978 88.8928 62.7303 88.9097 62.8591 88.8877C63.1572 88.8561 63.4335 88.7166 63.636 88.4957C63.8386 88.2747 63.9535 87.9874 63.9591 87.6877C63.9338 87.3948 63.8734 87.1061 63.7791 86.8277C63.6491 86.3377 63.4591 85.8277 63.3691 85.3577C63.2794 85.0197 63.3254 84.66 63.4973 84.3554C63.6692 84.0509 63.9534 83.8256 64.2891 83.7277C64.5397 83.6305 64.8019 83.5666 65.0691 83.5377C65.6759 83.4772 66.2608 83.2789 66.7791 82.9577C67.1963 82.7203 67.5417 82.3749 67.7791 81.9577L68.0191 81.5377C68.1791 81.2777 68.3091 81.2277 68.5791 81.3777C68.6952 81.4452 68.8056 81.5221 68.9091 81.6077C69.0595 81.7202 69.2165 81.8237 69.3791 81.9177C69.4704 81.9648 69.5709 81.9915 69.6736 81.9959C69.7763 82.0004 69.8787 81.9825 69.9737 81.9436C70.0688 81.9046 70.1543 81.8454 70.2243 81.7702C70.2943 81.6949 70.3471 81.6054 70.3791 81.5077C70.4491 81.3277 70.4791 81.1177 70.5391 80.9277C70.6891 80.4377 70.8491 79.9277 71.0091 79.4677C71.0091 79.3277 71.1091 79.1377 71.3191 79.1477C71.5291 79.1577 71.5291 79.3677 71.5891 79.5077C71.6466 79.6141 71.6871 79.7288 71.7091 79.8477C71.8091 80.3977 71.8891 80.9377 71.9791 81.4877C72.0058 82.2923 71.9421 83.0973 71.7891 83.8877C71.6571 85.2096 71.8708 86.5432 72.4091 87.7577C72.5868 88.1242 72.8195 88.4614 73.0991 88.7577C73.2174 88.9171 73.3733 89.0447 73.553 89.129C73.7327 89.2133 73.9305 89.2518 74.1287 89.2409C74.3269 89.23 74.5193 89.1701 74.6886 89.0665C74.858 88.963 74.999 88.8191 75.0991 88.6477C75.3956 88.2829 75.6135 87.8607 75.7391 87.4077C76.0327 86.4366 76.1346 85.4177 76.0391 84.4077C75.9921 83.6683 75.8126 82.9435 75.5091 82.2677C74.9527 81.0647 74.6433 79.7624 74.5991 78.4377C74.5871 77.5215 74.6709 76.6065 74.8491 75.7077C75.1494 74.1651 75.6433 72.6666 76.3191 71.2477ZM45.0291 55.8977C44.4391 64.4877 40.5891 68.0177 40.4191 68.1677C40.1709 69.0151 40.2347 69.9234 40.5991 70.7277C41.1891 72.6277 40.7891 73.8277 39.3991 74.2977C39.1938 74.3729 38.9752 74.4055 38.7569 74.3934C38.5385 74.3814 38.3249 74.325 38.1291 74.2277C38.076 74.7777 37.9654 75.3207 37.7991 75.8477L37.7391 75.9677C37.514 76.2976 37.2291 76.5826 36.8991 76.8077C36.7647 76.9286 36.6058 77.0189 36.4331 77.0724C36.2605 77.1259 36.0783 77.1414 35.8991 77.1177C35.5102 77.0988 35.1395 76.947 34.8491 76.6877C33.1691 75.2377 34.3891 71.5977 34.5291 71.1877V71.1277C34.6865 70.8398 34.7658 70.5157 34.7591 70.1877C34.6418 69.9288 34.4591 69.7047 34.2291 69.5377C34.0691 69.4077 30.9191 66.7077 32.3991 58.5377C32.3991 58.1877 33.7191 49.4277 38.7891 46.8877L39.1691 46.7277L39.4691 46.5677C40.0546 46.2876 40.7194 46.2204 41.3491 46.3777C41.982 46.5296 42.5496 46.8801 42.9691 47.3777C43.1351 47.5323 43.2889 47.6994 43.4291 47.8777C44.7391 49.6377 45.2391 52.3077 45.0291 55.8977Z" fill="#A5F9CF"/>
</svg>
