<svg width="111" height="118" viewBox="0 0 111 118" fill="none" xmlns="http://www.w3.org/2000/svg">
<path d="M100.608 86.9751C100.921 86.1844 101.403 85.8603 101.015 85.0236C100.706 84.3666 100.108 83.911 99.2936 84.3666C98.5993 84.752 98.3934 85.6215 98.7022 86.3531C98.9212 86.8502 98.7723 87.4723 98.7789 88.0417C98.7789 88.8521 98.6014 89.7259 98.8468 90.4509C99.1863 91.4606 100.244 91.6467 100.934 90.8386C101.451 90.2297 101.484 89.0864 100.739 88.0439C100.63 87.8908 100.561 87.7129 100.538 87.5262C100.515 87.3395 100.539 87.1501 100.608 86.9751Z" fill="#1E1E1E"/>
<path d="M98.5449 81.5088C98.3259 81.9008 98.0631 82.2797 97.8878 82.6893C97.7698 83.0419 97.6818 83.4038 97.625 83.7712L99.27 82.6762C98.9962 82.2535 98.7705 81.8811 98.5449 81.5088Z" fill="#1E1E1E"/>
<path d="M108.75 50.6642C92.2657 34.1736 75.7651 17.6991 59.2484 1.24064C58.2299 0.226583 57.9649 0.23315 56.9245 1.2713C44.9506 13.1932 32.9767 25.1121 21.0028 37.0282C16.7688 41.2224 12.8021 45.6728 7.62632 48.888C2.64766 51.9805 -0.0180005 56.6128 0.481399 62.7124C0.650055 64.7646 0.875661 66.7884 2.23368 68.4726C2.90173 69.2939 3.69902 69.594 4.75039 69.3093C6.7217 68.7814 7.88039 67.5703 7.83877 65.483C7.80811 63.9499 7.35252 62.4168 7.01301 60.9077C6.60561 59.0811 6.11936 57.2742 5.60682 55.2133C7.71174 56.2076 8.70615 55.9973 10.1189 54.5562C11.5981 53.0435 13.0868 51.5403 14.585 50.0466C24.7176 40.0039 34.8516 29.959 44.9871 19.9119C45.4427 19.4629 45.9136 19.0359 46.4349 18.5343C47.0438 19.6162 46.6933 20.5055 46.3363 21.3815C45.1294 24.3076 44.2183 27.306 44.4504 30.5124C44.4981 31.4853 44.7654 32.4347 45.2324 33.2895C46.0538 34.665 47.5563 34.7767 48.4807 33.4845C49.2385 32.4244 50.3693 31.192 50.499 29C50.6545 26.3718 50.027 24.5748 49.808 21.9313C49.589 19.3972 49.8365 17.0165 51.0237 14.7146C52.6971 11.4666 55.8205 9.57865 58.0897 6.70295C58.8257 7.48265 59.4302 8.15723 60.072 8.79676C68.3953 17.0844 76.723 25.3742 85.0551 33.6663C85.4364 34.0405 85.6933 34.523 85.791 35.0483C86.0473 37.107 86.2641 39.1702 85.7078 41.2377C85.3838 42.3974 85.1783 43.5869 85.0945 44.788C85.0375 45.615 85.188 46.4432 85.5326 47.1972C85.7385 47.6177 86.5357 48.0032 87.022 47.955C87.4031 47.9178 87.9551 47.2169 88.0099 46.7614C88.104 45.8627 88.044 44.9546 87.8324 44.0762C87.4316 42.3525 86.8336 40.3157 87.3725 38.5701C87.5367 37.5735 88.6166 37.7137 89.484 38.3379C89.8733 38.6182 90.2435 38.924 90.5923 39.2534C95.7527 44.3638 100.918 49.4618 106.089 54.5474C106.555 55.0051 107.089 55.3878 107.673 55.682C108.43 56.063 109.247 56.074 109.922 55.4629C110.597 54.8519 110.853 53.9802 110.454 53.1698C110.024 52.2488 109.449 51.4029 108.75 50.6642Z" fill="#1E1E1E"/>
<path d="M100.935 90.8324C100.245 91.6406 99.183 91.4544 98.8478 90.4447C98.6047 89.7154 98.7887 88.8415 98.7799 88.0355C98.7799 87.4924 98.9004 86.901 98.7296 86.4148C98.4645 85.6658 98.6179 84.724 99.3166 84.3473C100.12 83.9092 100.712 84.3626 101.016 85.0197" fill="#1E1E1E"/>
<path d="M99.2602 82.6869L97.6152 83.782C97.6721 83.4146 97.76 83.0526 97.8781 82.7C98.0621 82.2905 98.3161 81.9116 98.5352 81.5195L99.2602 82.6869Z" fill="#1E1E1E"/>
<path d="M104.768 78.0372C104.159 74.8921 103.491 71.7514 102.659 68.661C101.866 65.7174 101.441 62.8352 102.424 59.8521C102.902 58.4 103.16 56.8801 103.592 55.4105C103.842 54.565 103.673 53.9321 103.011 53.3692C101.546 52.123 100.028 50.925 98.6526 49.5846C95.308 46.3234 92.0334 42.9899 88.7282 39.6893C88.575 39.5595 88.4038 39.4526 88.22 39.3718C87.998 40.5002 87.998 41.0002 88.7282 43.8699C88.998 45.0002 89.0283 46.0601 88.998 47.0002C88.9542 47.8106 87.8851 48.8688 86.998 49.0002C86.065 49.1382 84.7587 47.9855 84.498 47.1073C84.1902 46.1109 84.0429 44.9099 84.1191 43.8699C84.2615 42.3543 84.6958 41.0005 84.998 39.5002C85.3419 37.8072 84.998 36.0002 84.3124 35.2608C83.9561 34.9476 83.6197 34.6126 83.3049 34.2577C75.021 26.027 66.74 17.7934 58.462 9.55683C57.9144 9.01148 57.5464 9.03776 57.0295 9.56997C55.2203 11.4251 53.9375 13.8372 52.1217 15.6944C51.8342 16.0207 51.6079 16.3961 51.4536 16.8027C50.5315 18.9797 50.8425 21.2422 50.998 23.5002C51.1382 25.4999 51.5221 26.9984 51.498 29.0002C51.4761 30.8553 50.378 33.1226 48.998 34.5002C47.6838 35.8144 45.5494 35.5334 44.498 34.0002C43.9822 33.2124 43.5834 31.9381 43.498 31.0002C42.998 25.0002 45.6619 20.8682 45.1271 21.4517C34.5682 32.0025 24.0042 42.5475 13.435 53.0867C12.5589 53.9627 12.4143 54.7446 12.721 55.8967C16.9352 71.793 21.1341 87.6944 25.3177 103.601C25.506 104.313 26.0361 104.933 26.4128 105.594L26.7239 105.46C26.6822 105.71 26.6341 105.96 26.599 106.209C26.2705 108.516 25.8411 110.809 25.6637 113.13C25.5893 114.096 25.92 115.154 26.2989 116.074C26.6779 116.994 27.5233 117.651 28.647 117.528C29.7027 117.412 30.316 116.63 30.4255 115.7C30.6145 114.234 30.6504 112.753 30.5329 111.28C30.3533 109.335 29.9371 107.412 29.602 105.366C30.1342 105.331 30.3489 105.305 30.5635 105.303C40.8582 105.248 51.1528 105.16 61.4474 105.149C70.6469 105.149 79.8463 105.195 89.0458 105.272C90.2045 105.272 90.636 104.784 90.9032 103.752C92.9709 95.7755 95.0612 87.8039 97.1742 79.8375C97.2346 79.6424 97.3078 79.4515 97.3932 79.2659C97.5816 79.7039 97.9693 80.3741 98.7665 80.2909C99.9866 80.1617 99.8289 77.8028 99.5901 76.2916C99.4368 74.5723 99.6755 74.154 100.125 72.1609C100.236 71.6594 100.265 71.1403 100.344 70.6278L100.744 70.6585C100.644 72.5333 100.525 74.4081 100.449 76.2851C100.379 77.989 100.287 79.6996 100.335 81.4035C100.359 82.2621 100.773 83.0593 101.743 83.2805C102.714 83.5017 103.412 82.9826 103.973 82.2314C104.891 80.9545 105.048 79.4783 104.768 78.0372ZM74.2325 64.8961C70.7608 70.9104 65.3375 73.843 58.3809 73.9021C57.9801 73.9021 57.5771 73.8868 57.1762 73.889C57.0186 73.9339 56.8659 73.9948 56.7207 74.0708C57.0558 74.7278 57.4128 75.3849 57.6975 76.0419C57.9429 76.6223 58.2451 77.2334 58.2649 77.8401C58.2955 78.6833 57.4281 79.3447 56.5498 79.3206C55.6299 79.2944 55.1064 78.7862 55.0757 77.8905C55.0407 76.7954 55.0757 75.7003 55.1261 74.6052C55.1633 73.6919 54.5829 73.4269 53.8732 73.5101C53.1635 73.5933 52.9642 74.2088 53.1372 74.8352C53.4373 75.9303 53.8732 76.9706 54.1426 78.0613C54.4558 79.3163 54.8216 80.5975 54.8479 81.8744C54.8786 83.2914 53.5096 84.5574 52.3049 84.5661C51.2097 84.5661 50.0401 83.5302 49.9788 82.0715C49.9021 80.234 50.1014 78.3811 50.2635 76.5413C50.3226 75.8624 50.6271 75.2075 50.8001 74.5373C51.2711 72.7019 51.1243 72.3646 49.4859 71.4075C43.204 67.7499 39.6425 60.2091 40.856 53.1414C42.1592 45.5524 47.8191 39.6543 55.1699 38.2285C62.5667 36.7939 70.2176 40.0836 74.0069 46.4833C77.5793 52.5413 77.7502 58.8009 74.2325 64.8983V64.8961Z" fill="#1E1E1E"/>
</svg>
